<svg width="46" height="46" viewBox="0 0 46 46" fill="none" xmlns="http://www.w3.org/2000/svg">
<path d="M29.8999 26.795C29.8988 26.9519 29.947 27.1052 30.0378 27.2332C30.1287 27.3611 30.2574 27.4573 30.4059 27.508V26.1165H30.3484C30.2125 26.169 30.0962 26.2625 30.0158 26.3841C29.9355 26.5057 29.895 26.6493 29.8999 26.795Z" fill="white"/>
<path d="M32.085 31.2455L32.246 31.1535C32.3905 31.0702 32.5097 30.9491 32.5907 30.8033C32.6717 30.6574 32.7116 30.4923 32.706 30.3255C32.7103 30.1418 32.6508 29.9623 32.5376 29.8175C32.4243 29.6728 32.2643 29.5719 32.085 29.532V31.2455Z" fill="white"/>
<path d="M27.83 7.613H27.715C27.0616 7.36683 26.3518 7.311 25.668 7.452H25.599C19.0325 9.2 10.419 11.5 6.18695 12.65H6.09495L5.80745 12.765C4.64615 13.1111 3.4509 13.3308 2.24245 13.4205C2.03201 13.4205 1.83018 13.5041 1.68137 13.6529C1.53256 13.8017 1.44895 14.0036 1.44895 14.214V14.8005C1.44282 14.8501 1.44282 14.9004 1.44895 14.95V22.2755C1.43017 22.3812 1.4327 22.4895 1.4564 22.5942C1.4801 22.6989 1.52448 22.7977 1.58695 22.885C1.66072 22.9871 1.75742 23.0705 1.86927 23.1284C1.98112 23.1863 2.105 23.2172 2.23095 23.2185C4.43895 23.2185 5.93395 24.3685 7.65895 25.7715C8.03845 26.059 8.41795 26.3695 8.80895 26.657C10.6284 28.1651 12.909 29.0051 15.272 29.0375C16.491 29.0375 17.4685 29.0375 18.2505 29.0375H21.7005C21.6992 31.5466 22.6742 33.9577 24.4192 35.7607C26.1641 37.5636 28.5422 38.6169 31.05 38.6975C33.6032 38.6075 36.0171 37.5108 37.7645 35.647C39.512 33.7832 40.451 31.3038 40.3765 28.75C40.377 27.7009 40.218 26.6578 39.905 25.6565H39.997C40.1391 25.7044 40.2854 25.7391 40.434 25.76C40.787 25.8297 41.1504 25.8297 41.5035 25.76C42.3672 25.6621 43.1622 25.2416 43.7294 24.5828C44.2965 23.9239 44.5941 23.0753 44.5625 22.2065C44.5659 21.284 44.2161 20.3952 43.585 19.7225C43.3522 19.494 43.0936 19.2933 42.8145 19.1245L28.06 7.7395C27.9928 7.68199 27.9145 7.63893 27.83 7.613ZM31.05 37.628C28.8835 37.551 26.8265 36.6567 25.2926 35.1249C23.7586 33.5931 22.8615 31.5373 22.7815 29.371H24.8285C25.4022 29.3632 25.959 29.176 26.421 28.8357C26.883 28.4954 27.2269 28.0191 27.4045 27.4735C27.4892 27.807 27.6333 28.1226 27.83 28.405C28.3336 29.0923 29.0688 29.5743 29.9 29.762V30.3255C29.7946 30.2276 29.6948 30.124 29.601 30.015C29.5135 29.8962 29.3991 29.7998 29.2672 29.7338C29.1352 29.6678 28.9895 29.6341 28.842 29.6355C28.6815 29.6451 28.5248 29.6881 28.382 29.762H28.3245L27.531 30.2565C27.3937 30.3384 27.2802 30.4547 27.2015 30.5938C27.1229 30.7329 27.0818 30.8902 27.0825 31.05C27.0953 31.245 27.1631 31.4324 27.278 31.5905C27.5412 31.9546 27.8504 32.2832 28.198 32.568C28.6966 32.9772 29.2769 33.2751 29.9 33.442V33.787C29.8969 34.0443 29.9953 34.2924 30.174 34.4776C30.3527 34.6627 30.5972 34.77 30.8545 34.776H31.6365C31.8937 34.77 32.1382 34.6627 32.3169 34.4776C32.4956 34.2924 32.5941 34.0443 32.591 33.787V33.4535C33.0907 33.3329 33.563 33.1183 33.9825 32.821C34.3991 32.5441 34.7403 32.1679 34.9752 31.7262C35.2101 31.2845 35.3313 30.7913 35.328 30.291C35.3559 29.6579 35.1605 29.0351 34.776 28.5315C34.2163 27.865 33.4451 27.4104 32.591 27.2435V27.14C32.7041 27.1862 32.8252 27.2096 32.9475 27.209C33.1305 27.208 33.3096 27.1563 33.465 27.0595L34.339 26.473C34.4507 26.4026 34.5454 26.308 34.6159 26.1963C34.6864 26.0845 34.731 25.9584 34.7464 25.8272C34.7619 25.696 34.7477 25.563 34.7051 25.4379C34.6624 25.3129 34.5924 25.1989 34.5 25.1045C33.9932 24.4878 33.3116 24.0388 32.545 23.8165V23.3565C32.5465 23.2296 32.523 23.1037 32.4758 22.9859C32.4287 22.8682 32.3588 22.7608 32.2702 22.67C32.1815 22.5793 32.0759 22.5069 31.9593 22.4569C31.8426 22.407 31.7173 22.3805 31.5905 22.379H30.8085C30.5532 22.385 30.3104 22.4906 30.1321 22.6733C29.9537 22.856 29.8539 23.1012 29.854 23.3565V23.782C29.5848 23.8479 29.3228 23.9403 29.072 24.058C28.691 24.2187 28.3462 24.4542 28.0578 24.7505C27.7694 25.0468 27.5433 25.3979 27.393 25.783C27.296 25.382 27.1145 25.0063 26.8607 24.681C26.6068 24.3558 26.2864 24.0885 25.921 23.897C25.5639 23.7165 25.1709 23.6183 24.771 23.6095H24.265C25.0001 22.4763 26.0046 21.5429 27.1886 20.8927C28.3726 20.2425 29.6992 19.8958 31.05 19.8835H31.4065L37.8005 24.2995L38.479 24.817C39.0401 26.0518 39.3265 27.3937 39.3185 28.75C39.39 31.0213 38.5611 33.2288 37.0124 34.8917C35.4637 36.5546 33.3206 37.5381 31.05 37.628ZM34.201 25.438C34.2381 25.4712 34.2676 25.512 34.2874 25.5577C34.3073 25.6033 34.317 25.6527 34.316 25.7025C34.3135 25.7655 34.2953 25.8268 34.2632 25.881C34.2311 25.9352 34.186 25.9806 34.132 26.013L33.258 26.588C33.1776 26.6377 33.0873 26.6691 32.9935 26.68C32.86 26.6769 32.7327 26.6235 32.637 26.5305C32.4766 26.3863 32.2989 26.2626 32.108 26.1625V27.7265C32.9962 27.7919 33.8227 28.2052 34.408 28.8765C34.7191 29.2845 34.8741 29.7903 34.845 30.3025C34.8463 30.7234 34.7417 31.1378 34.5407 31.5076C34.3397 31.8774 34.0489 32.1907 33.695 32.4185C33.2107 32.7499 32.6552 32.9627 32.0735 33.0395V33.81C32.075 33.8674 32.0652 33.9245 32.0446 33.9781C32.0241 34.0317 31.9932 34.0808 31.9536 34.1224C31.9141 34.1641 31.8668 34.1975 31.8143 34.2209C31.7619 34.2442 31.7053 34.257 31.648 34.2585H30.866C30.8086 34.257 30.752 34.2442 30.6996 34.2209C30.6471 34.1975 30.5998 34.1641 30.5603 34.1224C30.5208 34.0808 30.4898 34.0317 30.4693 33.9781C30.4487 33.9245 30.4389 33.8674 30.4405 33.81V33.0395C29.7517 32.9328 29.1042 32.6428 28.566 32.2C28.2492 31.9502 27.9703 31.6558 27.738 31.326C27.6957 31.2933 27.6614 31.2515 27.6375 31.2037C27.6137 31.1559 27.6008 31.1034 27.6 31.05C27.5955 30.9812 27.6118 30.9127 27.6466 30.8533C27.6814 30.7939 27.7333 30.7462 27.7955 30.7165L28.589 30.222C28.6604 30.1822 28.7382 30.1549 28.819 30.1415C28.8874 30.1403 28.9549 30.1566 29.0153 30.1888C29.0757 30.221 29.1268 30.268 29.164 30.3255C29.4941 30.7316 29.9213 31.048 30.406 31.2455V29.325C29.9738 29.2848 29.5546 29.1558 29.1747 28.9461C28.7947 28.7363 28.4622 28.4503 28.198 28.106C27.9295 27.7214 27.7851 27.264 27.784 26.795C27.7689 26.2988 27.9094 25.8104 28.1857 25.3979C28.462 24.9855 28.8603 24.6698 29.325 24.495C29.6652 24.3291 30.0304 24.2203 30.406 24.173V23.3105C30.4058 23.1954 30.4499 23.0847 30.5291 23.0012C30.6083 22.9177 30.7165 22.8679 30.8315 22.862H31.6135C31.7284 22.8679 31.8366 22.9177 31.9158 23.0012C31.995 23.0847 32.0391 23.1954 32.039 23.3105V24.196C32.881 24.3314 33.643 24.7739 34.178 25.438H34.201ZM22.9195 23.874C22.9195 23.874 22.9195 23.874 22.9195 23.9545H18.699C18.3124 23.855 17.9715 23.6262 17.733 23.3061C17.4945 22.986 17.3727 22.5939 17.388 22.195C17.3877 21.9011 17.4587 21.6116 17.5949 21.3512C17.7311 21.0909 17.9284 20.8674 18.17 20.7L19.6995 20.263L20.2745 20.102C20.976 19.9295 21.712 19.7225 22.4365 19.4925H22.5745C25.691 18.607 27.669 18.055 28.198 17.917C28.3434 17.9046 28.4895 17.9046 28.635 17.917L30.084 18.9175C28.573 19.0965 27.1286 19.6415 25.8761 20.5053C24.6236 21.369 23.6008 22.5254 22.8965 23.874H22.9195ZM41.8715 20.424L41.975 20.493C42.1377 20.5798 42.2853 20.6924 42.412 20.8265C42.7688 21.2063 42.9663 21.7084 42.964 22.2295C42.9824 22.7046 42.8229 23.1696 42.5166 23.5333C42.2103 23.897 41.7793 24.1333 41.3079 24.196H41.2045C41.0338 24.2317 40.8576 24.2317 40.687 24.196H40.4915C40.402 24.1701 40.3168 24.1313 40.2385 24.081L40.089 24.0005L38.502 22.7815L29.486 16.5485C29.4073 16.4987 29.3222 16.46 29.233 16.4335C28.8562 16.3466 28.4687 16.3156 28.083 16.3415H27.945L22.195 17.94H22.034C21.321 18.1585 20.6195 18.3655 19.918 18.538L19.3315 18.7105L17.687 19.1705L17.503 19.251C16.9977 19.5586 16.58 19.9909 16.29 20.5065C16 21.022 15.8474 21.6035 15.847 22.195C15.8323 22.9815 16.0951 23.748 16.5893 24.36C17.0835 24.9719 17.7775 25.3903 18.5495 25.5415H24.4145C24.6422 25.5669 24.8526 25.6754 25.0054 25.8462C25.1581 26.017 25.2426 26.2381 25.2426 26.4673C25.2426 26.6964 25.1581 26.9175 25.0054 27.0883C24.8526 27.2591 24.6422 27.3676 24.4145 27.393H18.2275C17.434 27.393 16.468 27.393 15.272 27.393C13.249 27.3565 11.3001 26.6257 9.75195 25.323L8.60195 24.472C7.05636 22.9911 5.10822 21.999 3.00145 21.62V15.065C3.00145 15.065 3.00145 14.996 3.00145 14.9615C4.08509 14.8136 5.15717 14.5908 6.20995 14.2945H6.30195L6.58945 14.1795C10.8445 13.0295 19.4235 10.7295 25.875 8.993C26.2588 8.90729 26.6596 8.93935 27.025 9.085H27.094L41.1469 19.941L41.8715 20.424Z" fill="white"/>
</svg>
