<svg width="46" height="46" viewBox="0 0 46 46" fill="none" xmlns="http://www.w3.org/2000/svg">
<path d="M42.067 10.166C42.0346 10.0888 41.9878 10.0186 41.929 9.959C41.7864 9.80316 41.6037 9.6896 41.4008 9.63077C41.1979 9.57194 40.9828 9.57012 40.779 9.6255C40.5724 9.67491 40.3835 9.78058 40.2333 9.93079C40.083 10.081 39.9774 10.2699 39.928 10.4765C39.832 10.8407 39.637 11.1711 39.3645 11.431C39.0972 11.6784 38.7678 11.8487 38.4113 11.9236C38.0549 11.9986 37.6848 11.9754 37.3405 11.8565C36.9414 11.7022 36.5933 11.4396 36.3353 11.0983C36.0773 10.757 35.9196 10.3505 35.88 9.9245C35.8743 9.87483 35.8743 9.82467 35.88 9.775C35.9428 9.3328 36.1396 8.92046 36.4439 8.59354C36.7482 8.26661 37.1454 8.04079 37.582 7.9465C37.7899 7.91447 37.9851 7.82601 38.1462 7.69076C38.3074 7.5555 38.4283 7.37863 38.4959 7.17939C38.5635 6.98016 38.5752 6.7662 38.5296 6.5608C38.484 6.35541 38.383 6.16645 38.2375 6.0145L35.4085 2.9785C35.2522 2.80697 35.0478 2.6867 34.822 2.6335H34.638C34.3554 2.64021 34.0852 2.75074 33.879 2.944L31.1765 5.382C31.0155 5.01417 30.7939 4.67597 30.521 4.3815C29.9025 3.72602 29.052 3.33857 28.1515 3.30204C27.2511 3.2655 26.372 3.58278 25.7025 4.186C25.3089 4.56212 25.0099 5.02603 24.83 5.53982C24.6501 6.05361 24.5943 6.60268 24.6672 7.14216C24.7401 7.68164 24.9396 8.19621 25.2495 8.64381C25.5593 9.09141 25.9707 9.45933 26.45 9.7175L23.805 12.213C23.7488 12.257 23.7019 12.3117 23.667 12.374C23.5372 12.5443 23.4575 12.7474 23.437 12.9605C23.4255 13.0174 23.4255 13.0761 23.437 13.133C23.4728 13.3628 23.5724 13.578 23.7245 13.754L26.5305 16.8245C26.6718 16.9824 26.8539 17.0981 27.0569 17.159C27.2598 17.2199 27.4756 17.2235 27.6805 17.1695C27.8856 17.121 28.0735 17.0171 28.2236 16.869C28.3737 16.721 28.4802 16.5345 28.5315 16.33C28.6598 15.9025 28.9159 15.5246 29.2654 15.2471C29.6149 14.9695 30.041 14.8056 30.4865 14.7775H30.636C31.045 14.8536 31.4258 15.0393 31.7376 15.3147C32.0495 15.5901 32.2808 15.945 32.407 16.3415C32.4745 16.6092 32.4866 16.8879 32.4424 17.1605C32.3982 17.433 32.2987 17.6937 32.1501 17.9263C32.0014 18.159 31.8067 18.3588 31.578 18.5134C31.3492 18.6681 31.0913 18.7743 30.82 18.8255C30.6092 18.8577 30.4115 18.9479 30.2491 19.086C30.0866 19.2241 29.9657 19.4047 29.9 19.6075C29.8331 19.8032 29.8202 20.0133 29.8627 20.2157C29.9052 20.4181 30.0015 20.6052 30.1415 20.7575C30.1887 20.8226 30.2521 20.8741 30.3255 20.907L33.0165 23.782C33.2022 23.9863 33.4553 24.1169 33.7295 24.15H33.9135C34.046 24.1288 34.1742 24.0861 34.293 24.0235C34.381 23.9774 34.4623 23.9193 34.5345 23.851L37.467 21.183L37.5705 21.068C37.6774 20.9229 37.7488 20.7546 37.7788 20.5768C37.8087 20.399 37.7965 20.2167 37.743 20.0445C37.693 19.8753 37.6048 19.7199 37.4851 19.5903C37.3655 19.4607 37.2176 19.3603 37.053 19.297C36.7578 19.1963 36.4955 19.0174 36.294 18.7795C36.1074 18.5831 35.9647 18.3492 35.8755 18.0935C35.7863 17.8377 35.7525 17.5658 35.7765 17.296C35.7937 17.0259 35.8657 16.7622 35.9883 16.521C36.1109 16.2798 36.2815 16.0661 36.4895 15.893H36.547C36.7362 15.7015 36.962 15.5498 37.2109 15.4471C37.4597 15.3444 37.7267 15.2927 37.996 15.295C38.2663 15.2953 38.5336 15.3517 38.781 15.4606C39.0284 15.5694 39.2506 15.7284 39.4335 15.9275C39.6474 16.1564 39.8049 16.432 39.8935 16.7325C39.9423 16.9005 40.0287 17.0551 40.1463 17.1847C40.2639 17.3142 40.4095 17.4152 40.572 17.48C40.7425 17.5421 40.9246 17.566 41.1054 17.5501C41.2862 17.5342 41.4613 17.4789 41.6185 17.388L41.7335 17.296L44.6315 14.5935C44.803 14.4373 44.9233 14.2328 44.9765 14.007C44.982 13.942 44.982 13.8765 44.9765 13.8115C44.9674 13.5384 44.8614 13.2775 44.6775 13.0755L42.067 10.166ZM41.147 15.916C40.9893 15.5656 40.7757 15.2433 40.5145 14.9615C40.1982 14.6241 39.8174 14.3537 39.3946 14.1664C38.9718 13.9791 38.5156 13.8787 38.0533 13.8712C37.5909 13.8637 37.1317 13.9492 36.7031 14.1227C36.2744 14.2962 35.885 14.554 35.558 14.881C35.21 15.1764 34.9241 15.5378 34.7168 15.9445C34.5095 16.3511 34.385 16.7949 34.3505 17.25C34.3161 17.7144 34.3781 18.1808 34.5324 18.6202C34.6868 19.0595 34.9302 19.4622 35.2475 19.803C35.4996 20.0865 35.7993 20.3239 36.133 20.5045L33.833 22.586L31.533 20.1135C32.357 19.8336 33.0448 19.2526 33.4585 18.487C33.8723 17.7214 33.9814 16.8277 33.764 15.985C33.5809 15.3284 33.2179 14.736 32.7159 14.2747C32.214 13.8134 31.5932 13.5016 30.9235 13.3745C30.7036 13.3279 30.4764 13.3279 30.2565 13.3745C29.612 13.4352 28.9954 13.6664 28.4699 14.0444C27.9444 14.4223 27.5291 14.9334 27.2665 15.525L25.024 13.0755L27.6805 10.603C27.7934 10.4957 27.8834 10.3666 27.945 10.2235C28.0405 10.0726 28.0996 9.90162 28.1175 9.72397C28.1355 9.54632 28.1119 9.36692 28.0485 9.2C27.9952 9.03835 27.9067 8.89054 27.7893 8.76724C27.672 8.64394 27.5288 8.54823 27.37 8.487C27.0829 8.40258 26.8192 8.25303 26.5995 8.05C26.2469 7.6697 26.0578 7.16615 26.0728 6.64778C26.0879 6.12941 26.3059 5.63769 26.68 5.2785C27.0706 4.93655 27.5783 4.7588 28.0969 4.78237C28.6155 4.80594 29.105 5.02902 29.463 5.405C29.6809 5.63088 29.839 5.90757 29.923 6.21C29.9725 6.36761 30.0555 6.51269 30.1661 6.63537C30.2768 6.75805 30.4126 6.85544 30.5643 6.92092C30.716 6.98639 30.88 7.01842 31.0451 7.01481C31.2103 7.0112 31.3728 6.97204 31.5215 6.9C31.6672 6.85319 31.8007 6.77464 31.9125 6.67L34.6035 4.2205L36.9035 6.647C36.2889 6.86123 35.7425 7.23507 35.3201 7.7302C34.8977 8.22532 34.6147 8.82389 34.5 9.4645C34.4598 9.68502 34.4598 9.91098 34.5 10.1315C34.5687 10.7996 34.8195 11.436 35.2251 11.9714C35.6306 12.5067 36.1754 12.9205 36.8 13.1675C37.388 13.3666 38.0189 13.4033 38.6261 13.2738C39.2333 13.1443 39.7943 12.8533 40.25 12.4315C40.5963 12.1092 40.8706 11.7173 41.055 11.2815L43.355 13.777L41.147 15.916Z" fill="white"/>
<path d="M5.63497 42.228C5.63497 42.533 5.75613 42.8255 5.97179 43.0412C6.18746 43.2568 6.47997 43.378 6.78497 43.378L20.24 43.2975H20.3435C20.4872 43.3658 20.6443 43.4011 20.8035 43.401H25.1275C25.3046 43.3653 25.4708 43.2885 25.6127 43.1766C25.7545 43.0647 25.868 42.9209 25.944 42.757C26.023 42.598 26.0641 42.4228 26.0641 42.2453C26.0641 42.0677 26.023 41.8925 25.944 41.7335C25.7668 41.3642 25.6977 40.9523 25.7445 40.5454C25.7913 40.1384 25.9521 39.753 26.2085 39.4335C26.2308 39.3886 26.2671 39.3523 26.312 39.33C26.7223 39.0269 27.2164 38.8582 27.7265 38.847C27.9877 38.8455 28.2467 38.8954 28.4887 38.994C28.7306 39.0926 28.9508 39.2379 29.1366 39.4216C29.3224 39.6052 29.4703 39.8237 29.5716 40.0645C29.673 40.3053 29.726 40.5637 29.7275 40.825C29.7341 41.1402 29.663 41.4523 29.5205 41.7335C29.4433 41.891 29.4032 42.0641 29.4032 42.2395C29.4032 42.4149 29.4433 42.588 29.5205 42.7455C29.5989 42.9087 29.7148 43.051 29.8587 43.1609C30.0026 43.2708 30.1704 43.3452 30.3485 43.378H34.454C34.759 43.378 35.0515 43.2568 35.2671 43.0412C35.4828 42.8255 35.604 42.533 35.604 42.228L35.65 37.95C35.65 37.645 35.5288 37.3525 35.3131 37.1368C35.0975 36.9212 34.805 36.8 34.5 36.8C34.2706 36.7995 34.0463 36.8676 33.856 36.9955C33.5309 37.1962 33.157 37.3036 32.775 37.306C32.4101 37.3073 32.0519 37.2082 31.7395 37.0196C31.4272 36.8309 31.1727 36.56 31.004 36.2365C30.8302 35.8677 30.7609 35.4583 30.8034 35.0528C30.846 34.6473 30.9989 34.2612 31.2455 33.9365C31.2709 33.894 31.3064 33.8584 31.349 33.833C31.7446 33.5433 32.2163 33.3755 32.706 33.35C33.0816 33.3465 33.4498 33.4546 33.764 33.6605C33.993 33.799 34.2612 33.8582 34.5272 33.8291C34.7932 33.8 35.0423 33.6842 35.236 33.4995C35.447 33.2806 35.5628 32.987 35.558 32.683V28.52C35.558 28.215 35.4368 27.9225 35.2211 27.7068C35.0055 27.4912 34.713 27.37 34.408 27.37H30.8545C30.9744 26.9984 31.0365 26.6105 31.0385 26.22C31.0385 25.305 30.675 24.4275 30.028 23.7805C29.381 23.1335 28.5035 22.77 27.5885 22.77C26.7873 22.783 26.0091 23.0398 25.3575 23.506C25.4677 23.3598 25.5676 23.2061 25.6565 23.046C25.9499 22.4374 26.0718 21.7602 26.009 21.0874C25.9462 20.4147 25.701 19.7718 25.3 19.228C25.1718 19.0404 25.0076 18.8801 24.817 18.7565C24.335 18.408 23.7775 18.1784 23.1899 18.0865C22.6023 17.9946 22.0013 18.0429 21.436 18.2275V14.674C21.436 14.369 21.3148 14.0765 21.0991 13.8608C20.8835 13.6452 20.591 13.524 20.286 13.524H16.721C16.9184 12.947 16.9702 12.3302 16.8719 11.7283C16.7736 11.1265 16.5282 10.5582 16.1575 10.074C16.027 9.89553 15.8676 9.74007 15.686 9.614C15.0359 9.15471 14.2623 8.90221 13.4665 8.8895C12.5515 8.8895 11.6739 9.25298 11.0269 9.89998C10.3799 10.547 10.0165 11.4245 10.0165 12.3395C10.0214 12.7327 10.0954 13.1219 10.235 13.4895H6.65847C6.35347 13.4895 6.06096 13.6107 5.84529 13.8263C5.62963 14.042 5.50847 14.3345 5.50847 14.6395V18.814C5.50293 18.8598 5.50293 18.9062 5.50847 18.952C5.55986 19.2178 5.70336 19.4569 5.91372 19.6273C6.12408 19.7977 6.3878 19.8884 6.65847 19.8835C6.83849 19.8824 7.01575 19.8391 7.17597 19.757C7.54849 19.5938 7.95763 19.5323 8.36167 19.5788C8.76572 19.6252 9.15021 19.778 9.47597 20.0215C9.51567 20.0458 9.55071 20.0769 9.57947 20.1135C9.82297 20.4393 9.97574 20.8237 10.0222 21.2278C10.0687 21.6318 10.0072 22.041 9.84397 22.4135C9.70022 22.7749 9.45366 23.0863 9.13481 23.3091C8.81596 23.5319 8.43879 23.6563 8.04997 23.667C7.74268 23.6681 7.43941 23.5972 7.16447 23.46C7.00425 23.3779 6.82699 23.3346 6.64697 23.3335C6.373 23.3295 6.10661 23.4235 5.89578 23.5985C5.68494 23.7735 5.54352 24.018 5.49697 24.288C5.49131 24.3338 5.49131 24.3802 5.49697 24.426V28.3935C5.49904 28.5019 5.52661 28.6083 5.57747 28.704V32.154C5.00202 31.9508 4.38488 31.8949 3.78228 31.9913C3.17969 32.0878 2.6108 32.3334 2.12747 32.706C1.94253 32.8373 1.78281 33.001 1.65597 33.189C1.25426 33.738 1.01258 34.3876 0.957768 35.0656C0.902956 35.7437 1.03716 36.4236 1.34547 37.03C1.64217 37.5822 2.08372 38.0431 2.62267 38.3633C3.16163 38.6834 3.77762 38.8506 4.40447 38.847C4.79706 38.8469 5.1865 38.7768 5.55447 38.64L5.63497 42.228ZM25.714 28.2785C25.8149 28.1037 25.868 27.9054 25.868 27.7035C25.868 27.5016 25.8149 27.3033 25.714 27.1285C25.5366 26.7599 25.4663 26.3489 25.511 25.9423C25.5557 25.5356 25.7137 25.1498 25.967 24.8285C25.9985 24.7912 26.0331 24.7565 26.0705 24.725C26.5133 24.4001 27.0509 24.2303 27.6 24.242C27.9401 24.2421 28.2747 24.3289 28.572 24.4942C28.8693 24.6595 29.1195 24.8978 29.2991 25.1867C29.4786 25.4756 29.5816 25.8056 29.5982 26.1453C29.6148 26.4851 29.5445 26.8235 29.394 27.1285C29.293 27.3033 29.2399 27.5016 29.2399 27.7035C29.2399 27.9054 29.293 28.1037 29.394 28.2785C29.4977 28.4536 29.646 28.598 29.8238 28.697C30.0016 28.796 30.2025 28.846 30.406 28.842H34.109V32.292C33.5138 32.0417 32.8638 31.9505 32.2227 32.0271C31.5816 32.1037 30.9714 32.3456 30.452 32.729C30.267 32.8603 30.1073 33.024 29.9805 33.212C29.5791 33.7587 29.3367 34.4056 29.2799 35.0814C29.2231 35.7572 29.3541 36.4355 29.6585 37.0415C29.953 37.5997 30.395 38.0664 30.9364 38.3909C31.4778 38.7153 32.0978 38.885 32.729 38.8815C33.2218 38.8773 33.7081 38.7675 34.155 38.5595V42.0095H31.05C31.1783 41.6399 31.2406 41.2507 31.234 40.8595C31.234 39.9445 30.8705 39.067 30.2235 38.42C29.5765 37.773 28.699 37.4095 27.784 37.4095C26.9792 37.4224 26.1973 37.679 25.5415 38.1455C25.3565 38.2768 25.1968 38.4405 25.07 38.6285C24.7164 39.1058 24.4836 39.6615 24.3915 40.2483C24.2994 40.835 24.3507 41.4354 24.541 41.998H21.16V38.272C21.16 37.967 21.0388 37.6745 20.8231 37.4588C20.6075 37.2432 20.315 37.122 20.01 37.122C19.8247 37.1214 19.6424 37.1689 19.481 37.26C19.1919 37.4062 18.8734 37.4849 18.5495 37.49C18.1854 37.4875 17.8287 37.3869 17.517 37.1986C17.2053 37.0104 16.9502 36.7416 16.7785 36.4205C16.612 36.0499 16.5467 35.6419 16.5891 35.2379C16.6315 34.8339 16.7802 34.4484 17.02 34.1205C17.0484 34.0804 17.0834 34.0454 17.1235 34.017C17.4481 33.7716 17.8321 33.6168 18.2362 33.5683C18.6403 33.5198 19.05 33.5794 19.4235 33.741C19.6447 33.8231 19.8859 33.8352 20.1143 33.7755C20.3427 33.7158 20.5471 33.5874 20.7 33.4075C20.81 33.2996 20.8973 33.1708 20.9565 33.0285C21.0158 32.8863 21.0459 32.7336 21.045 32.5795V28.865H24.748C24.9458 28.8587 25.1387 28.8013 25.308 28.6986C25.4772 28.5958 25.6171 28.4511 25.714 28.2785ZM24.288 27.393H21.4475V24.7365C21.8172 24.8643 22.2063 24.9266 22.5975 24.9205C23.401 24.9162 24.1779 24.6315 24.794 24.1155C24.4598 24.5845 24.2401 25.1251 24.1522 25.6942C24.0643 26.2633 24.1108 26.8451 24.288 27.393ZM8.04997 25.116C8.67762 25.111 9.29202 24.9349 9.827 24.6066C10.362 24.2783 10.7973 23.8103 11.086 23.253C11.3868 22.6442 11.5127 21.9639 11.4498 21.2878C11.3869 20.6117 11.1375 19.9663 10.7295 19.4235C10.6023 19.2389 10.4425 19.0791 10.258 18.952C9.78105 18.6025 9.22843 18.3703 8.64498 18.2744C8.06152 18.1785 7.46368 18.2215 6.89997 18.4V15.019H10.6145C10.816 15.021 11.0145 14.97 11.1901 14.8711C11.3657 14.7722 11.5122 14.6289 11.615 14.4555C11.7159 14.2807 11.769 14.0824 11.769 13.8805C11.769 13.6786 11.7159 13.4803 11.615 13.3055C11.4495 13.0007 11.3661 12.658 11.373 12.3113C11.3799 11.9645 11.4768 11.6254 11.6543 11.3274C11.8317 11.0294 12.0835 10.7826 12.3851 10.6112C12.6867 10.4399 13.0276 10.3499 13.3745 10.35C13.8789 10.3624 14.3679 10.5267 14.7775 10.8215C14.8192 10.8429 14.8548 10.8745 14.881 10.9135C15.1343 11.2343 15.2941 11.6188 15.3428 12.0246C15.3915 12.4305 15.3272 12.8419 15.157 13.2135C15.0499 13.3932 14.9939 13.5987 14.9949 13.8078C14.9959 14.017 15.054 14.2219 15.1628 14.4005C15.2716 14.5791 15.4271 14.7247 15.6125 14.8215C15.7979 14.9183 16.0062 14.9627 16.215 14.95H19.9295V18.653C19.9295 18.958 20.0506 19.2505 20.2663 19.4662C20.482 19.6818 20.7745 19.803 21.0795 19.803C21.263 19.8008 21.4438 19.7576 21.6085 19.6765C21.9774 19.5005 22.3881 19.4309 22.7945 19.4756C23.2008 19.5203 23.5866 19.6775 23.9085 19.9295C23.951 19.9549 23.9866 19.9905 24.012 20.033C24.2623 20.3555 24.4193 20.7405 24.4659 21.146C24.5125 21.5515 24.447 21.9621 24.2765 22.333C24.0377 22.7989 23.625 23.1519 23.1277 23.3155C22.6304 23.4791 22.0887 23.4401 21.62 23.207C21.4017 23.0952 21.1534 23.0561 20.9114 23.0954C20.6693 23.1347 20.4461 23.2504 20.2745 23.4255C20.1665 23.5343 20.0814 23.6636 20.0241 23.8058C19.9668 23.948 19.9386 24.1002 19.941 24.2535V27.6345C19.87 27.6978 19.8046 27.7671 19.7455 27.8415L19.6765 27.968H16.1805C16.1031 27.9707 16.0265 27.9517 15.9595 27.913C15.8924 27.8744 15.8375 27.8178 15.801 27.7495C15.7582 27.6804 15.7355 27.6008 15.7355 27.5195C15.7355 27.4382 15.7582 27.3586 15.801 27.2895C16.1056 26.7834 16.2489 26.1965 16.212 25.607C16.175 25.0174 15.9594 24.4531 15.594 23.989C15.5201 23.8805 15.4265 23.7869 15.318 23.713C14.7859 23.3362 14.1529 23.1278 13.501 23.115C13.1416 23.114 12.7856 23.1846 12.4539 23.3229C12.1221 23.4611 11.8213 23.6641 11.569 23.92C11.1334 24.3584 10.8598 24.9317 10.7929 25.5461C10.7261 26.1604 10.8699 26.7792 11.201 27.301C11.2435 27.3723 11.266 27.4537 11.266 27.5367C11.266 27.6198 11.2435 27.7012 11.201 27.7725C11.164 27.8412 11.1093 27.8988 11.0426 27.9393C10.9758 27.9797 10.8995 28.0015 10.8215 28.0025L6.89997 28.106V24.932C7.26942 25.0608 7.65877 25.1231 8.04997 25.116ZM4.43897 37.421C4.0746 37.4198 3.71742 37.3196 3.40551 37.1312C3.09361 36.9429 2.8387 36.6734 2.66797 36.3515C2.4926 35.9837 2.42133 35.5749 2.46188 35.1694C2.50242 34.7639 2.65324 34.3773 2.89797 34.0515C2.9264 34.0114 2.96139 33.9764 3.00147 33.948C3.32614 33.7026 3.71011 33.5478 4.11418 33.4993C4.51825 33.4508 4.92795 33.5104 5.30147 33.672C5.47629 33.7729 5.6746 33.8261 5.87647 33.8261C6.07833 33.8261 6.27664 33.7729 6.45147 33.672C6.62269 33.5678 6.7637 33.4207 6.86052 33.2452C6.95735 33.0697 7.00663 32.8719 7.00347 32.6715V29.647H10.8675C11.205 29.6444 11.5356 29.5513 11.8249 29.3773C12.1142 29.2033 12.3514 28.9549 12.512 28.658C12.6716 28.3559 12.7483 28.0168 12.7341 27.6754C12.72 27.334 12.6156 27.0024 12.4315 26.7145C12.2532 26.4553 12.1769 26.1394 12.2172 25.8274C12.2575 25.5154 12.4116 25.2293 12.65 25.024C12.9005 24.7908 13.2266 24.6556 13.5686 24.6429C13.9107 24.6302 14.2458 24.741 14.513 24.955C14.6917 25.1871 14.7988 25.4663 14.8213 25.7584C14.8437 26.0505 14.7806 26.3428 14.6395 26.5995C14.4676 26.8924 14.377 27.2259 14.377 27.5655C14.377 27.9051 14.4676 28.2386 14.6395 28.5315C14.8011 28.8257 15.0393 29.0709 15.3287 29.2409C15.6182 29.4109 15.9482 29.4996 16.284 29.4975H19.6765L19.55 32.2C18.9733 32.005 18.3578 31.9534 17.7567 32.0495C17.1556 32.1457 16.587 32.3868 16.1 32.752C15.9123 32.8801 15.7521 33.0443 15.6285 33.235C15.2271 33.7817 14.9847 34.4286 14.9279 35.1044C14.8711 35.7802 15.0021 36.4585 15.3065 37.0645C15.6025 37.6206 16.0452 38.085 16.5865 38.4073C17.1278 38.7296 17.747 38.8976 18.377 38.893C18.7695 38.892 19.1587 38.8219 19.527 38.686V41.791L19.55 41.86L7.06097 41.9405V38.2145C7.06177 38.0119 7.00902 37.8126 6.90804 37.6369C6.80707 37.4612 6.66146 37.3153 6.48597 37.214C6.31114 37.1131 6.11283 37.0599 5.91097 37.0599C5.7091 37.0599 5.51079 37.1131 5.33597 37.214C5.05553 37.3473 4.74945 37.4179 4.43897 37.421Z" fill="white"/>
</svg>
