<svg width="46" height="46" viewBox="0 0 46 46" fill="none" xmlns="http://www.w3.org/2000/svg">
<path d="M42.228 32.775C42.3443 32.7966 42.4637 32.7949 42.5794 32.7701C42.6951 32.7453 42.8047 32.6979 42.902 32.6305C42.9993 32.5632 43.0822 32.4773 43.1462 32.3777C43.2101 32.2782 43.2537 32.167 43.2745 32.0505L44.0335 28.0945C44.0579 27.978 44.0583 27.8577 44.0345 27.741C44.0108 27.6243 43.9635 27.5137 43.8955 27.416C43.7593 27.2207 43.5536 27.0849 43.3205 27.0365L41.791 26.749C41.7217 25.9103 41.5479 25.0836 41.2735 24.288L42.55 23.414C42.7451 23.277 42.8786 23.0688 42.9216 22.8343C42.9647 22.5998 42.9138 22.3578 42.78 22.1605L40.48 18.8255C40.3438 18.6302 40.1381 18.4944 39.905 18.446C39.6732 18.4038 39.434 18.4532 39.238 18.584L37.95 19.458C37.3073 18.9196 36.605 18.4566 35.857 18.078L36.1445 16.5485C36.1883 16.3152 36.1378 16.0741 36.0042 15.8779C35.8705 15.6818 35.6646 15.5466 35.4315 15.502L31.464 14.743C31.2322 14.7008 30.993 14.7502 30.797 14.881C30.6016 15.0171 30.4658 15.2229 30.4175 15.456L30.13 16.9855C29.2919 17.0591 28.4657 17.2328 27.669 17.503L26.7835 16.215C26.7199 16.1147 26.6358 16.029 26.5367 15.9635C26.4376 15.8981 26.3257 15.8545 26.2085 15.8355C26.0937 15.812 25.9754 15.8121 25.8608 15.8359C25.7461 15.8596 25.6375 15.9064 25.5415 15.9735L22.2065 18.2735C22.108 18.3391 22.0237 18.4238 21.9585 18.5226C21.8933 18.6213 21.8486 18.7322 21.827 18.8485C21.8039 18.9651 21.8042 19.0851 21.8279 19.2016C21.8516 19.3181 21.8982 19.4287 21.965 19.527L22.839 20.815C22.3006 21.4577 21.8376 22.1599 21.459 22.908L19.9295 22.6205C19.8131 22.5971 19.6933 22.5971 19.5769 22.6204C19.4606 22.6436 19.35 22.6898 19.2516 22.7561C19.1532 22.8224 19.0689 22.9076 19.0037 23.0067C18.9384 23.1058 18.8935 23.2169 18.8715 23.3335L18.124 27.301C18.1007 27.4166 18.1008 27.5358 18.1242 27.6514C18.1476 27.767 18.1939 27.8768 18.2603 27.9743C18.3267 28.0718 18.4119 28.155 18.511 28.2191C18.61 28.2832 18.7208 28.3268 18.837 28.3475L20.3665 28.6465C20.4578 29.4662 20.643 30.2726 20.9185 31.05L19.6305 31.924C19.4342 32.0571 19.2987 32.2624 19.2534 32.4952C19.2082 32.7279 19.2569 32.9691 19.389 33.166L21.689 36.5125C21.7531 36.6112 21.8376 36.6951 21.9368 36.7585C22.0359 36.822 22.1475 36.8636 22.264 36.8805C22.3787 36.904 22.497 36.9039 22.6117 36.8801C22.7263 36.8564 22.835 36.8096 22.931 36.7425L24.15 35.8915C24.7957 36.4314 25.5019 36.8945 26.2545 37.2715L25.967 38.801C25.9436 38.9173 25.9436 39.0372 25.9668 39.1535C25.9901 39.2699 26.0363 39.3805 26.1026 39.4789C26.1689 39.5773 26.2541 39.6615 26.3532 39.7268C26.4523 39.792 26.5634 39.837 26.68 39.859L30.636 40.6065H30.8085C31.019 40.6072 31.223 40.5339 31.3849 40.3993C31.5468 40.2648 31.6562 40.0776 31.694 39.8705L31.9815 38.341C32.8375 38.2833 33.6833 38.1211 34.5 37.858L35.374 39.1C35.4383 39.1972 35.5212 39.2808 35.6179 39.3459C35.7146 39.4111 35.8232 39.4565 35.9375 39.4795C36.173 39.5224 36.4159 39.473 36.616 39.3415L39.951 37.0415C40.1404 36.9204 40.2767 36.7319 40.3322 36.5141C40.3877 36.2962 40.3583 36.0654 40.25 35.8685L39.376 34.5805C39.917 33.9356 40.3802 33.2293 40.756 32.476L42.228 32.775ZM39.3415 31.119C38.9156 32.1428 38.3034 33.0787 37.536 33.879C37.384 34.0266 37.29 34.2238 37.271 34.4348C37.252 34.6458 37.3093 34.8566 37.4325 35.029L38.203 36.179L36.3515 37.444L35.581 36.294C35.4648 36.1247 35.2941 36.0004 35.0974 35.9418C34.9007 35.8832 34.6898 35.8939 34.5 35.972C33.474 36.3959 32.3783 36.626 31.2685 36.6505C31.0616 36.6519 30.8616 36.7249 30.7023 36.8569C30.543 36.9889 30.4343 37.172 30.3945 37.375L30.1415 38.709L27.945 38.295L28.198 36.9495C28.2345 36.7477 28.2008 36.5395 28.1024 36.3595C28.0041 36.1795 27.847 36.0387 27.6575 35.9605C26.6308 35.5348 25.6943 34.9183 24.8975 34.1435C24.7484 33.9933 24.5505 33.9014 24.3395 33.8845C24.1285 33.8676 23.9185 33.9269 23.7475 34.0515L22.5975 34.8105L21.3325 32.959L22.4825 32.1885C22.6517 32.0724 22.776 31.9017 22.8346 31.7049C22.8932 31.5082 22.8826 31.2973 22.8045 31.1075C22.3776 30.0829 22.1512 28.9859 22.1375 27.876C22.1329 27.6695 22.0571 27.4709 21.923 27.3137C21.7889 27.1566 21.6047 27.0505 21.4015 27.0135L20.0675 26.7605L20.4815 24.5525L21.827 24.8055C22.0275 24.845 22.2356 24.814 22.4159 24.7175C22.5962 24.6211 22.7375 24.4653 22.816 24.2765C23.2431 23.2506 23.8595 22.3143 24.633 21.5165C24.7809 21.3665 24.872 21.1698 24.8909 20.9601C24.9098 20.7503 24.8552 20.5405 24.7365 20.3665L23.966 19.2165L25.8175 17.963L26.588 19.113C26.7011 19.2857 26.8717 19.4128 27.0696 19.4717C27.2674 19.5307 27.4798 19.5176 27.669 19.435C28.6956 19.0148 29.7913 18.7886 30.9005 18.768C31.106 18.7661 31.3044 18.6928 31.4618 18.5606C31.6191 18.4284 31.7256 18.2456 31.763 18.0435L32.0275 16.698L34.224 17.1235L34.0055 18.4C33.9661 18.6035 33.9984 18.8144 34.0969 18.9968C34.1955 19.1792 34.3541 19.3219 34.546 19.4005C35.569 19.8264 36.5018 20.4431 37.2945 21.2175C37.4459 21.3636 37.6433 21.4527 37.853 21.4695C38.0627 21.4862 38.2718 21.4297 38.4445 21.3095L39.5945 20.539L40.848 22.3905L39.698 23.161C39.5261 23.2777 39.4001 23.4503 39.3413 23.6496C39.2826 23.8488 39.2949 24.0623 39.376 24.2535C39.7985 25.2794 40.0248 26.3756 40.043 27.485C40.0476 27.6915 40.1233 27.8901 40.2574 28.0473C40.3915 28.2044 40.5757 28.3105 40.779 28.3475L42.113 28.6005L41.699 30.8085L40.3535 30.544C40.1442 30.5062 39.9282 30.5431 39.7433 30.6482C39.5584 30.7532 39.4162 30.9199 39.3415 31.119Z" fill="white"/>
<path d="M32.3035 21.344C30.6745 21.1361 29.0276 21.5572 27.6983 22.5215C26.3691 23.4858 25.4576 24.9207 25.1496 26.5338C24.8417 28.1468 25.1605 29.8166 26.041 31.2028C26.9215 32.589 28.2975 33.5872 29.8885 33.994C30.2902 34.0716 30.6984 34.1101 31.1075 34.109C32.7079 34.0938 34.2455 33.4843 35.4217 32.3989C36.5978 31.3135 37.3286 29.8297 37.4719 28.2356C37.6153 26.6416 37.161 25.0512 36.1974 23.7734C35.2337 22.4955 33.8295 21.6215 32.2575 21.321L32.3035 21.344ZM35.65 28.5545C35.5359 29.1517 35.3044 29.7204 34.9691 30.2276C34.6338 30.7348 34.2013 31.1706 33.6965 31.5096C33.1917 31.8486 32.6248 32.0841 32.0284 32.2027C31.432 32.3212 30.8181 32.3203 30.222 32.2C29.0124 31.966 27.9447 31.2622 27.2528 30.2427C26.5609 29.2232 26.3012 27.9711 26.5305 26.7605C26.7265 25.7047 27.2856 24.7508 28.1111 24.064C28.9365 23.3772 29.9762 23.0008 31.05 23C31.3433 22.9983 31.636 23.0252 31.924 23.0805C32.5289 23.1936 33.1055 23.4253 33.6205 23.762C34.1356 24.0987 34.579 24.534 34.9253 25.0427C35.2716 25.5514 35.5139 26.1236 35.6382 26.7263C35.7626 27.3289 35.7666 27.9503 35.65 28.5545Z" fill="white"/>
<path d="M2.39197 17.9745C2.40314 18.0621 2.43188 18.1465 2.47647 18.2227C2.52106 18.2989 2.58058 18.3653 2.65146 18.4179C2.72234 18.4705 2.80312 18.5083 2.88896 18.5289C2.97479 18.5496 3.06391 18.5526 3.15097 18.538L4.30097 18.377C4.55571 18.9548 4.88012 19.4994 5.26697 19.9985L4.59997 20.9415C4.5437 21.0095 4.50318 21.0891 4.48131 21.1746C4.45944 21.2601 4.45676 21.3493 4.47347 21.436C4.49654 21.6003 4.58328 21.749 4.71497 21.85L7.14147 23.667C7.27855 23.7661 7.44771 23.8104 7.61577 23.7913C7.78384 23.7721 7.93869 23.6909 8.04997 23.5635L8.75147 22.632C9.33998 22.8592 9.95402 23.0136 10.58 23.092L10.7525 24.242C10.7622 24.33 10.7896 24.4151 10.8331 24.4921C10.8766 24.5692 10.9352 24.6367 11.0055 24.6905C11.1273 24.7754 11.2711 24.8234 11.4195 24.8285H11.5L14.5015 24.3915C14.6778 24.3658 14.8369 24.2718 14.9445 24.1298C15.0521 23.9878 15.0995 23.8092 15.0765 23.6325L14.904 22.4825C15.4868 22.2305 16.0355 21.9059 16.537 21.5165L17.4685 22.218C17.5384 22.2724 17.6184 22.3122 17.704 22.3353C17.7895 22.3584 17.8787 22.3642 17.9665 22.3525C18.0543 22.3407 18.1388 22.3115 18.2152 22.2667C18.2916 22.2219 18.3583 22.1624 18.4115 22.0915L20.24 19.665C20.3462 19.5194 20.3912 19.338 20.3654 19.1596C20.3396 18.9813 20.2451 18.8201 20.102 18.7105L19.159 18.009C19.3912 17.4214 19.5496 16.8072 19.6305 16.1805L20.7805 16.0195C20.9534 15.9873 21.1087 15.8933 21.2175 15.755C21.2735 15.6844 21.3146 15.6031 21.3383 15.5161C21.362 15.4292 21.3679 15.3383 21.3555 15.249L20.9185 12.2475C20.8928 12.0712 20.7988 11.9121 20.6568 11.8045C20.5148 11.6969 20.3361 11.6495 20.1595 11.6725L19.0095 11.845C18.7505 11.2658 18.4264 10.7179 18.0435 10.212L18.745 9.2805C18.8495 9.13386 18.8947 8.95309 18.8715 8.7745C18.8602 8.68727 18.8308 8.60335 18.7853 8.52811C18.7398 8.45286 18.679 8.38795 18.607 8.3375L16.2265 6.509C16.1585 6.45273 16.0789 6.41221 15.9934 6.39034C15.9079 6.36847 15.8186 6.36579 15.732 6.3825C15.644 6.39221 15.5589 6.41963 15.4818 6.46311C15.4048 6.5066 15.3373 6.56524 15.2835 6.6355L14.582 7.5785C13.9934 7.34901 13.3796 7.19072 12.7535 7.107L12.581 5.957C12.5683 5.87008 12.5386 5.78652 12.4936 5.71111C12.4485 5.6357 12.3891 5.56993 12.3185 5.51757C12.248 5.46522 12.1678 5.4273 12.0826 5.40601C11.9974 5.38472 11.9088 5.38047 11.822 5.3935L8.82047 5.819C8.7318 5.83076 8.64639 5.86024 8.56934 5.90568C8.49229 5.95112 8.42517 6.01159 8.37197 6.0835C8.26741 6.23014 8.22222 6.41091 8.24547 6.5895L8.40647 7.7395C7.83318 8.00297 7.28961 8.3268 6.78497 8.7055L5.84197 8.05C5.69936 7.94617 5.52241 7.90091 5.34747 7.9235C5.16957 7.95086 5.009 8.04556 4.89897 8.188L3.08197 10.557C2.97741 10.7036 2.93222 10.8844 2.95547 11.063C2.96675 11.1502 2.9961 11.2341 3.04164 11.3094C3.08718 11.3846 3.14792 11.4496 3.21997 11.5L4.16297 12.2015C3.93205 12.7935 3.77373 13.4114 3.69147 14.0415L2.54147 14.2025C2.36436 14.232 2.20453 14.3263 2.09297 14.467C1.98792 14.6049 1.93865 14.7774 1.95497 14.95L2.39197 17.9745ZM4.40447 15.295C4.5565 15.272 4.69619 15.198 4.80066 15.0851C4.90513 14.9723 4.96817 14.8273 4.97947 14.674C5.03478 13.8411 5.2454 13.0259 5.60047 12.2705C5.65001 12.1364 5.6567 11.9903 5.61962 11.8523C5.58254 11.7143 5.50352 11.5912 5.39347 11.5L4.59997 10.833L5.61197 9.476L6.43997 10.097C6.5596 10.1912 6.70745 10.2424 6.85972 10.2424C7.01199 10.2424 7.15983 10.1912 7.27947 10.097C7.90628 9.54416 8.63205 9.11495 9.41847 8.832C9.56749 8.77068 9.68983 8.65833 9.76358 8.51504C9.83733 8.37176 9.85767 8.20691 9.82097 8.05L9.67147 7.038L11.339 6.7965L11.5 7.82C11.5226 7.97329 11.5962 8.1145 11.7088 8.22089C11.8215 8.32729 11.9666 8.39266 12.121 8.4065C12.954 8.45234 13.7702 8.65933 14.5245 9.016C14.6653 9.08149 14.8244 9.09667 14.9751 9.05899C15.1258 9.02132 15.259 8.93307 15.3525 8.809L15.962 8.05L17.3075 9.0505L16.6865 9.8785C16.5913 9.99993 16.5397 10.1497 16.5397 10.304C16.5397 10.4583 16.5913 10.6081 16.6865 10.7295C17.2432 11.3491 17.6729 12.072 17.9515 12.857C18.0034 13.0046 18.1056 13.1292 18.2401 13.2091C18.3747 13.289 18.533 13.3191 18.6875 13.294L19.6995 13.156L19.941 14.8235L18.929 14.9615C18.7742 14.9829 18.6319 15.0579 18.5268 15.1735C18.4218 15.2891 18.3606 15.4379 18.354 15.594C18.2973 16.4267 18.0868 17.2416 17.733 17.9975C17.6675 18.1384 17.6523 18.2974 17.69 18.4481C17.7276 18.5988 17.8159 18.732 17.94 18.8255L18.768 19.435L17.7905 20.7L16.9625 20.0905C16.8428 19.9914 16.6923 19.9372 16.537 19.9372C16.3816 19.9372 16.2311 19.9914 16.1115 20.0905C15.4859 20.639 14.7647 21.0678 13.984 21.3555C13.8386 21.4071 13.7156 21.5075 13.6359 21.6396C13.5562 21.7717 13.5248 21.9273 13.547 22.08L13.685 23.1035L12.0175 23.3335L11.8795 22.3215C11.854 22.1685 11.7777 22.0286 11.663 21.9243C11.5482 21.8199 11.4017 21.7573 11.247 21.7465C10.4146 21.6883 9.5999 21.4778 8.84347 21.1255C8.75564 21.09 8.66216 21.0705 8.56747 21.068C8.46183 21.0767 8.35978 21.1104 8.26979 21.1664C8.17979 21.2224 8.10444 21.2991 8.04997 21.39L7.42897 22.218L6.08347 21.206L6.69297 20.3895C6.79422 20.2708 6.84984 20.12 6.84984 19.964C6.84984 19.808 6.79422 19.6571 6.69297 19.5385C6.14407 18.9088 5.71531 18.1838 5.42797 17.3995C5.37499 17.2325 5.25845 17.0931 5.10352 17.0113C4.9486 16.9295 4.76772 16.912 4.59997 16.9625L3.57647 17.112L3.44997 15.4445L4.40447 15.295Z" fill="white"/>
<path d="M11.6841 19.9525C11.9137 19.9693 12.1444 19.9693 12.3741 19.9525C13.6311 19.8631 14.8045 19.2894 15.6469 18.3521C16.4894 17.4148 16.9352 16.1871 16.8905 14.9276C16.8458 13.6682 16.314 12.4752 15.4072 11.6C14.5004 10.7248 13.2893 10.2357 12.0291 10.2357C10.7688 10.2357 9.55772 10.7248 8.65091 11.6C7.7441 12.4752 7.21234 13.6682 7.16762 14.9276C7.1229 16.1871 7.56872 17.4148 8.41118 18.3521C9.25363 19.2894 10.427 19.8631 11.6841 19.9525ZM11.1896 11.638C11.3542 11.6266 11.5194 11.6266 11.6841 11.638C12.5753 11.702 13.407 12.1094 14.004 12.7743C14.6009 13.4392 14.9166 14.3098 14.8846 15.2028C14.8525 16.0958 14.4753 16.9416 13.8322 17.562C13.1891 18.1824 12.3304 18.5291 11.4368 18.5291C10.5432 18.5291 9.6845 18.1824 9.04142 17.562C8.39834 16.9416 8.02106 16.0958 7.98902 15.2028C7.95698 14.3098 8.27268 13.4392 8.86964 12.7743C9.46661 12.1094 10.2983 11.702 11.1896 11.638Z" fill="white"/>
</svg>
