<svg width="46" height="46" viewBox="0 0 46 46" fill="none" xmlns="http://www.w3.org/2000/svg">
<path d="M27.1975 15.6055L23.1725 18.5725L19.1475 15.6055C19.1047 15.562 19.0536 15.5275 18.9974 15.504C18.9411 15.4804 18.8807 15.4683 18.8197 15.4683C18.7587 15.4683 18.6983 15.4804 18.642 15.504C18.5858 15.5275 18.5348 15.562 18.492 15.6055C18.4481 15.6493 18.4134 15.7013 18.3897 15.7585C18.366 15.8157 18.3538 15.8771 18.3538 15.939C18.3538 16.0009 18.366 16.0623 18.3897 16.1195C18.4134 16.1767 18.4481 16.2287 18.492 16.2725L22.701 19.458V22.5975C22.6904 22.6648 22.6945 22.7336 22.713 22.7991C22.7315 22.8647 22.764 22.9255 22.8083 22.9773C22.8526 23.029 22.9075 23.0706 22.9694 23.0991C23.0313 23.1276 23.0986 23.1424 23.1667 23.1424C23.2348 23.1424 23.3022 23.1276 23.364 23.0991C23.4259 23.0706 23.4809 23.029 23.5251 22.9773C23.5694 22.9255 23.6019 22.8647 23.6204 22.7991C23.639 22.7336 23.6431 22.6648 23.6325 22.5975V19.4695L27.8645 16.2725C27.9477 16.1814 27.9938 16.0624 27.9938 15.939C27.9938 15.8156 27.9477 15.6966 27.8645 15.6055C27.8207 15.5617 27.7687 15.5269 27.7115 15.5032C27.6542 15.4795 27.5929 15.4673 27.531 15.4673C27.469 15.4673 27.4077 15.4795 27.3505 15.5032C27.2932 15.5269 27.2412 15.5617 27.1975 15.6055Z" fill="white"/>
<path d="M6.30201 2.967C5.50514 3.762 4.96295 4.7762 4.74451 5.88043C4.52606 6.98465 4.64126 8.1289 5.07541 9.16742C5.50957 10.2059 6.24304 11.0917 7.18238 11.7119C8.12173 12.3321 9.22443 12.6587 10.35 12.65C11.2802 12.6428 12.1943 12.4069 13.0118 11.9629C13.8293 11.519 14.5249 10.8808 15.0375 10.1045C15.55 9.32823 15.8637 8.43777 15.9508 7.51163C16.0379 6.5855 15.8958 5.65216 15.537 4.79392C15.1782 3.93568 14.6138 3.17891 13.8934 2.59033C13.1731 2.00176 12.319 1.59948 11.4065 1.41896C10.4939 1.23843 9.551 1.28522 8.66082 1.55519C7.77063 1.82516 6.96055 2.31002 6.30201 2.967ZM14.4785 6.969C14.4756 8.06732 14.0411 9.12049 13.2688 9.9014C12.4965 10.6823 11.4482 11.1284 10.35 11.1435C9.52389 11.1458 8.71566 10.9029 8.02766 10.4456C7.33966 9.98826 6.80281 9.33709 6.48509 8.5745C6.16737 7.81191 6.08305 6.9722 6.24283 6.16167C6.4026 5.35114 6.79927 4.60624 7.38263 4.02128C7.96598 3.43631 8.70978 3.03759 9.51987 2.87558C10.33 2.71357 11.1699 2.79556 11.9334 3.11118C12.6968 3.4268 13.3495 3.96184 13.8087 4.64858C14.2679 5.33532 14.513 6.14288 14.513 6.969H14.4785Z" fill="white"/>
<path d="M3.87551 21.321H16.744C16.9383 21.3211 17.1251 21.2455 17.2646 21.1103C17.4041 20.975 17.4855 20.7907 17.4915 20.5965C17.4915 20.3895 17.618 15.6055 14.605 12.8455C14.4709 12.7342 14.3021 12.6733 14.1278 12.6733C13.9535 12.6733 13.7847 12.7342 13.6505 12.8455C13.6505 12.8455 10.281 15.3755 7.18751 12.8455C7.05252 12.7312 6.88138 12.6685 6.70451 12.6685C6.52764 12.6685 6.3565 12.7312 6.22151 12.8455C5.21935 13.8666 4.42987 15.0766 3.89885 16.4051C3.36782 17.7337 3.10581 19.1544 3.12801 20.585C3.12902 20.7831 3.20744 20.9729 3.34651 21.114C3.41619 21.1824 3.49897 21.2359 3.58988 21.2715C3.68078 21.3071 3.77794 21.3239 3.87551 21.321ZM6.79651 14.421C7.87401 15.1066 9.12465 15.4707 10.4018 15.4707C11.6789 15.4707 12.9295 15.1066 14.007 14.421C15.2136 15.9892 15.901 17.8947 15.9735 19.872H4.66901C4.78132 17.8648 5.52605 15.9446 6.79651 14.3865V14.421Z" fill="white"/>
<path d="M35.65 12.65C36.7695 12.6546 37.8652 12.3269 38.7985 11.7084C39.7317 11.09 40.4605 10.2086 40.8926 9.17585C41.3247 8.14307 41.4407 7.00531 41.2259 5.90657C41.0111 4.80783 40.4752 3.79751 39.686 3.00347C38.8968 2.20942 37.8897 1.66736 36.7923 1.44588C35.6949 1.22439 34.5565 1.33345 33.5211 1.75924C32.4857 2.18503 31.5999 2.90842 30.9758 3.83785C30.3516 4.76728 30.0173 5.86097 30.015 6.9805C30.0104 7.7234 30.1528 8.45986 30.434 9.14752C30.7151 9.83518 31.1295 10.4605 31.6532 10.9874C32.1769 11.5143 32.7996 11.9324 33.4856 12.2178C34.1715 12.5031 34.9071 12.65 35.65 12.65ZM32.7405 4.025C33.3242 3.44432 34.0667 3.04924 34.8744 2.88945C35.6821 2.72966 36.519 2.8123 37.2799 3.12697C38.0408 3.44165 38.6916 3.9743 39.1505 4.65793C39.6094 5.34156 39.8559 6.14563 39.859 6.969C39.8529 8.08025 39.4064 9.14374 38.6174 9.92629C37.8284 10.7088 36.7613 11.1466 35.65 11.1435C34.8296 11.1337 34.0302 10.8824 33.3518 10.4209C32.6734 9.95937 32.146 9.30819 31.8356 8.54869C31.5252 7.78919 31.4455 6.95505 31.6064 6.15049C31.7673 5.34594 32.1618 4.60665 32.7405 4.025Z" fill="white"/>
<path d="M42.872 20.5965C42.872 20.3895 42.9985 15.6055 39.9855 12.8455C39.8495 12.7333 39.6788 12.672 39.5025 12.672C39.3263 12.672 39.1555 12.7333 39.0195 12.8455C39.0195 12.8455 35.6615 15.3755 32.568 12.8455C32.433 12.7312 32.2619 12.6685 32.085 12.6685C31.9081 12.6685 31.737 12.7312 31.602 12.8455C30.5951 13.8632 29.8026 15.0725 29.2712 16.4019C28.7399 17.7312 28.4805 19.1537 28.5085 20.585C28.5064 20.6835 28.5247 20.7813 28.5624 20.8724C28.6 20.9634 28.656 21.0457 28.727 21.114C28.7947 21.1865 28.8766 21.2444 28.9676 21.2839C29.0586 21.3235 29.1568 21.3439 29.256 21.344H42.113C42.3123 21.344 42.5037 21.2656 42.6457 21.1258C42.7877 20.9859 42.869 20.7958 42.872 20.5965ZM30.038 19.8145C30.1666 17.8221 30.9236 15.9217 32.2 14.3865C33.2775 15.0721 34.5282 15.4362 35.8053 15.4362C37.0824 15.4362 38.333 15.0721 39.4105 14.3865C40.6175 15.9474 41.3124 17.8433 41.4 19.8145H30.038Z" fill="white"/>
<path d="M23.1726 24.679C21.6754 24.6998 20.2454 25.3038 19.1866 26.3626C18.1279 27.4213 17.5239 28.8513 17.5031 30.3485C17.5031 31.8521 18.1004 33.2942 19.1636 34.3574C20.2268 35.4207 21.6689 36.018 23.1726 36.018C24.6762 36.018 26.1183 35.4207 27.1815 34.3574C28.2447 33.2942 28.8421 31.8521 28.8421 30.3485C28.8421 28.8449 28.2447 27.4028 27.1815 26.3396C26.1183 25.2763 24.6762 24.679 23.1726 24.679ZM26.1166 33.35C25.7265 33.7272 25.2654 34.0231 24.76 34.2206C24.2546 34.418 23.715 34.513 23.1726 34.5C22.3491 34.5001 21.5441 34.256 20.8594 33.7986C20.1747 33.3412 19.641 32.691 19.3258 31.9302C19.0107 31.1694 18.9283 30.3323 19.0889 29.5247C19.2496 28.717 19.6462 27.9752 20.2286 27.393C20.6129 27.0033 21.0714 26.6947 21.5771 26.4853C22.0828 26.276 22.6253 26.1701 23.1726 26.174C24.2777 26.174 25.3378 26.6122 26.1203 27.3926C26.9029 28.173 27.344 29.2318 27.3471 30.337C27.3582 30.8966 27.2547 31.4525 27.0431 31.9706C26.8315 32.4888 26.5162 32.9582 26.1166 33.35Z" fill="white"/>
<path d="M16.744 44.7005H29.601C29.7957 44.6979 29.9821 44.6218 30.1229 44.4874C30.2637 44.353 30.3484 44.1703 30.36 43.976C30.36 43.7805 30.4865 38.985 27.4735 36.2365C27.3386 36.1222 27.1674 36.0595 26.9905 36.0595C26.8137 36.0595 26.6425 36.1222 26.5075 36.2365C26.5075 36.2365 23.1495 38.7665 20.056 36.2365C19.9211 36.1222 19.7499 36.0595 19.573 36.0595C19.3962 36.0595 19.225 36.1222 19.09 36.2365C18.0814 37.2505 17.2875 38.4575 16.756 39.7853C16.2245 41.1132 15.9662 42.5346 15.9965 43.9645C15.9913 44.0641 16.0071 44.1636 16.0427 44.2567C16.0784 44.3498 16.1332 44.4344 16.2035 44.505C16.2763 44.5716 16.3615 44.6232 16.4542 44.6568C16.547 44.6903 16.6455 44.7052 16.744 44.7005ZM19.665 37.8005C20.7408 38.4851 21.9894 38.8487 23.2645 38.8487C24.5396 38.8487 25.7883 38.4851 26.864 37.8005C28.0727 39.3676 28.7603 41.2737 28.8305 43.2515H17.526C17.6329 41.2411 18.3827 39.3181 19.665 37.766V37.8005Z" fill="white"/>
</svg>
