<svg width="38" height="36" viewBox="0 0 38 36" fill="none" xmlns="http://www.w3.org/2000/svg">
<path d="M25.5789 13.7896H12.1053C6.52428 13.7896 2 18.3138 2 23.8948C2 29.4758 6.52428 34.0001 12.1053 34.0001H25.5789C31.1599 34.0001 35.6842 29.4758 35.6842 23.8948C35.6842 18.3138 31.1599 13.7896 25.5789 13.7896Z" stroke="#EBEBEB" stroke-width="4" stroke-linejoin="round"/>
<path d="M12.1052 20.5264V27.2632" stroke="#EBEBEB" stroke-width="4" stroke-linecap="round" stroke-linejoin="round"/>
<path d="M8.73682 23.8948H15.4737" stroke="#EBEBEB" stroke-width="4" stroke-linecap="round" stroke-linejoin="round"/>
<path d="M18.8422 12.1053V6.81179H25.579V2" stroke="#EBEBEB" stroke-width="4" stroke-linecap="round" stroke-linejoin="round"/>
<path d="M25.579 27.2632C27.4393 27.2632 28.9474 25.7551 28.9474 23.8948C28.9474 22.0345 27.4393 20.5264 25.579 20.5264C23.7187 20.5264 22.2106 22.0345 22.2106 23.8948C22.2106 25.7551 23.7187 27.2632 25.579 27.2632Z" stroke="#EBEBEB" stroke-width="4" stroke-linejoin="round"/>
</svg>
