<svg width="36" height="36" viewBox="0 0 36 36" fill="none" xmlns="http://www.w3.org/2000/svg">
<path d="M7.20029 23.3995C5.70623 23.3995 4.35617 24.0115 3.38414 24.9836C1.26005 27.1076 0 36 0 36C0 36 8.89235 34.74 11.0164 32.6159C11.7742 31.862 12.2909 30.8999 12.5009 29.8519C12.7109 28.8038 12.6046 27.7169 12.1957 26.7293C11.7868 25.7417 11.0936 24.8979 10.2042 24.305C9.31475 23.7122 8.2692 23.397 7.20029 23.3995ZM8.47834 30.0778C7.97432 30.5818 4.57218 31.4458 4.57218 31.4458C4.57218 31.4458 5.41822 28.0617 5.94024 27.5397C6.24625 27.1976 6.69627 26.9996 7.20029 26.9996C7.55667 27.0002 7.90493 27.1061 8.2012 27.3042C8.49746 27.5023 8.72847 27.7836 8.86514 28.1128C9.0018 28.4419 9.03799 28.8041 8.96916 29.1538C8.90033 29.5035 8.72955 29.825 8.47834 30.0778ZM27.7571 20.9694C39.2056 9.52094 35.3894 0.610584 35.3894 0.610584C35.3894 0.610584 26.4791 -3.20557 15.0306 8.24289L10.5484 7.34285C9.96577 7.23098 9.36465 7.26266 8.79698 7.43516C8.22932 7.60765 7.7122 7.91577 7.29029 8.33289L0 15.6412L9.00036 19.4933L16.5067 26.9996L20.3588 36L27.6491 28.7097C28.4951 27.8637 28.8732 26.6396 28.6391 25.4516L27.7571 20.9694ZM9.73839 15.8932L6.30025 14.4171L9.84639 10.871L12.4385 11.393C11.4125 12.8871 10.4944 14.4531 9.73839 15.8932ZM21.5829 29.6997L20.1068 26.2616C21.5469 25.5056 23.1129 24.5875 24.589 23.5615L25.111 26.1536L21.5829 29.6997ZM25.201 18.4313C22.8249 20.8074 19.1168 22.7515 17.9287 23.3455L12.6545 18.0713C13.2305 16.9012 15.1746 13.1931 17.5687 10.799C25.993 2.37466 32.3833 3.61671 32.3833 3.61671C32.3833 3.61671 33.6253 10.007 25.201 18.4313ZM23.4009 16.1992C25.381 16.1992 27.0011 14.5791 27.0011 12.5991C27.0011 10.619 25.381 8.99892 23.4009 8.99892C21.4209 8.99892 19.8008 10.619 19.8008 12.5991C19.8008 14.5791 21.4209 16.1992 23.4009 16.1992Z" fill="#EBEBEB"/>
</svg>
