<svg width="24" height="24" viewBox="0 0 24 24" fill="none" xmlns="http://www.w3.org/2000/svg">
<path d="M2.31988 10.4006H18.7463L11.5699 3.22417C10.9963 2.65064 10.9963 1.70947 11.5699 1.13594C11.7059 0.999607 11.8675 0.891449 12.0454 0.817653C12.2233 0.743856 12.414 0.705872 12.6066 0.705872C12.7992 0.705872 12.99 0.743856 13.1679 0.817653C13.3458 0.891449 13.5074 0.999607 13.6434 1.13594L23.3346 10.8271C23.4709 10.9632 23.5791 11.1248 23.6529 11.3027C23.7267 11.4806 23.7646 11.6713 23.7646 11.8639C23.7646 12.0565 23.7267 12.2472 23.6529 12.4251C23.5791 12.603 23.4709 12.7646 23.3346 12.9006L13.6434 22.5918C13.5073 22.728 13.3456 22.836 13.1677 22.9097C12.9898 22.9833 12.7992 23.0213 12.6066 23.0213C12.4141 23.0213 12.2234 22.9833 12.0455 22.9097C11.8677 22.836 11.706 22.728 11.5699 22.5918C11.4337 22.4557 11.3257 22.294 11.252 22.1161C11.1784 21.9383 11.1404 21.7476 11.1404 21.5551C11.1404 21.3625 11.1784 21.1719 11.252 20.994C11.3257 20.8161 11.4337 20.6544 11.5699 20.5183L18.7463 13.3418H2.31988C1.51105 13.3418 0.849289 12.6801 0.849289 11.8712C0.849289 11.0624 1.51105 10.4006 2.31988 10.4006Z" fill="white"/>
</svg>
