<svg width="200" height="23" viewBox="0 0 200 23" fill="none" xmlns="http://www.w3.org/2000/svg">
<path d="M2.25391 15.4L2.65391 15.6C2.65391 15.84 2.70724 16.0533 2.81391 16.24C3.00057 16.56 3.36057 16.88 3.89391 17.2C4.45391 17.4933 5.08057 17.76 5.77391 18C6.49391 18.24 7.24057 18.44 8.01391 18.6C8.78724 18.7333 9.48057 18.8 10.0939 18.8C10.5472 18.8 11.1339 18.7733 11.8539 18.72C12.5739 18.64 13.2806 18.4933 13.9739 18.28C14.6672 18.0667 15.2672 17.7733 15.7739 17.4C16.2806 17.0267 16.5339 16.5333 16.5339 15.92C16.5339 15.3067 16.2939 14.8533 15.8139 14.56C15.3606 14.2667 14.7472 14.0533 13.9739 13.92C13.2272 13.7867 12.3606 13.7067 11.3739 13.68C10.4139 13.6267 9.42724 13.56 8.41391 13.48C7.40057 13.4 6.40057 13.2667 5.41391 13.08C4.45391 12.8933 3.58724 12.5867 2.81391 12.16C2.06724 11.7067 1.45391 11.1067 0.973906 10.36C0.520573 9.58667 0.293906 8.58667 0.293906 7.36C0.293906 6.53333 0.480573 5.72 0.853906 4.92C1.25391 4.12 1.85391 3.41333 2.65391 2.8C3.45391 2.18667 4.46724 1.69333 5.69391 1.32C6.92057 0.92 8.36057 0.72 10.0139 0.72C11.4272 0.72 12.6539 0.826666 13.6939 1.04C14.7339 1.25333 15.6272 1.48 16.3739 1.72C17.1472 1.96 17.7872 2.18667 18.2939 2.4C18.8272 2.61333 19.2672 2.72 19.6139 2.72C19.9872 2.72 20.2539 2.64 20.4139 2.48L20.8939 2.8L18.1339 7.8L17.7339 7.64C17.6806 7.26667 17.5739 6.96 17.4139 6.72C17.2006 6.4 16.8406 6.09333 16.3339 5.8C15.8539 5.48 15.2806 5.2 14.6139 4.96C13.9472 4.72 13.2272 4.53333 12.4539 4.4C11.6806 4.24 10.9072 4.16 10.1339 4.16C9.54724 4.16 8.93391 4.21333 8.29391 4.32C7.68057 4.4 7.12057 4.53333 6.61391 4.72C6.10724 4.90667 5.68057 5.16 5.33391 5.48C5.01391 5.77333 4.85391 6.14667 4.85391 6.6C4.85391 7.24 5.08057 7.72 5.53391 8.04C6.01391 8.36 6.62724 8.6 7.37391 8.76C8.14724 8.92 9.01391 9.02667 9.97391 9.08C10.9606 9.13333 11.9606 9.2 12.9739 9.28C13.9872 9.36 14.9739 9.50667 15.9339 9.72C16.9206 9.90667 17.7872 10.2267 18.5339 10.68C19.3072 11.1067 19.9206 11.6933 20.3739 12.44C20.8539 13.1867 21.0939 14.16 21.0939 15.36C21.0939 16.7467 20.7206 17.88 19.9739 18.76C19.2539 19.64 18.3472 20.3333 17.2539 20.84C16.1606 21.3467 14.9739 21.6933 13.6939 21.88C12.4406 22.04 11.2672 22.12 10.1739 22.12C8.65391 22.12 7.37391 22.04 6.33391 21.88C5.32057 21.6933 4.46724 21.48 3.77391 21.24C3.10724 20.9733 2.57391 20.7467 2.17391 20.56C1.77391 20.3467 1.42724 20.24 1.13391 20.24C0.94724 20.24 0.773906 20.3467 0.613907 20.56L0.0539063 20.24L2.25391 15.4ZM36.1336 7.12C35.2803 7.12 34.4403 7.26667 33.6136 7.56C32.8136 7.82667 32.0936 8.22667 31.4536 8.76C30.8136 9.26667 30.2936 9.89333 29.8936 10.64C29.5203 11.3867 29.3336 12.24 29.3336 13.2C29.3336 14.16 29.5203 15.0133 29.8936 15.76C30.2936 16.5067 30.8136 17.1467 31.4536 17.68C32.0936 18.1867 32.8136 18.5867 33.6136 18.88C34.4403 19.1467 35.2803 19.28 36.1336 19.28C36.9869 19.28 37.8136 19.1467 38.6136 18.88C39.4403 18.5867 40.1736 18.1867 40.8136 17.68C41.4536 17.1467 41.9603 16.5067 42.3336 15.76C42.7336 15.0133 42.9336 14.16 42.9336 13.2C42.9336 12.24 42.7336 11.3867 42.3336 10.64C41.9603 9.89333 41.4536 9.26667 40.8136 8.76C40.1736 8.22667 39.4403 7.82667 38.6136 7.56C37.8136 7.26667 36.9869 7.12 36.1336 7.12ZM36.1336 4.16C37.6003 4.16 38.9736 4.34667 40.2536 4.72C41.5603 5.09333 42.6936 5.65333 43.6536 6.4C44.6136 7.14667 45.3736 8.09333 45.9336 9.24C46.4936 10.36 46.7736 11.68 46.7736 13.2C46.7736 14.72 46.4936 16.0533 45.9336 17.2C45.3736 18.32 44.6136 19.2533 43.6536 20C42.6936 20.7467 41.5603 21.2933 40.2536 21.64C38.9736 21.96 37.6003 22.12 36.1336 22.12C34.6669 22.12 33.2803 21.96 31.9736 21.64C30.6936 21.2933 29.5736 20.7467 28.6136 20C27.6536 19.2533 26.8936 18.32 26.3336 17.2C25.7736 16.0533 25.4936 14.72 25.4936 13.2C25.4936 11.68 25.7736 10.36 26.3336 9.24C26.8936 8.09333 27.6536 7.14667 28.6136 6.4C29.5736 5.65333 30.6936 5.09333 31.9736 4.72C33.2803 4.34667 34.6669 4.16 36.1336 4.16ZM57.2267 4.4V5.12C56.6134 5.12 56.3067 5.32 56.3067 5.72V19.04H67.1067C67.4267 19.04 67.6934 18.9733 67.9067 18.84C68.1201 18.68 68.2267 18.4667 68.2267 18.2H68.9467V22.4H68.2267C68.2267 22.1867 68.1201 22.0667 67.9067 22.04C67.6934 22.0133 67.4267 22 67.1067 22H51.4267V21.28C52.1201 21.28 52.4667 21.08 52.4667 20.68V5.72C52.4667 5.32 52.1201 5.12 51.4267 5.12V4.4H57.2267ZM78.0533 1.68C77.6533 1.68 77.4533 1.93333 77.4533 2.44C77.4533 2.57333 77.4666 2.73333 77.4933 2.92C77.5466 3.10667 77.6533 3.41333 77.8133 3.84L82.0933 14.96H82.1733L86.4133 3.68C86.5466 3.33333 86.6266 3.08 86.6533 2.92C86.7066 2.73333 86.7333 2.57333 86.7333 2.44C86.7333 1.93333 86.5599 1.68 86.2133 1.68V0.959999H93.0533V1.68C92.8666 1.68 92.7333 1.74667 92.6533 1.88C92.5733 2.01333 92.5333 2.16 92.5333 2.32C92.5333 2.58667 92.6666 3.04 92.9333 3.68L97.2133 14.96H97.2933L101.613 3.44C101.8 3.04 101.893 2.68 101.893 2.36C101.893 2.2 101.827 2.05333 101.693 1.92C101.56 1.76 101.4 1.68 101.213 1.68V0.959999H107.133V1.68C106.84 1.68 106.613 1.84 106.453 2.16C106.32 2.48 106.16 2.88 105.973 3.36L100.213 18.64C100.053 19.0667 99.9066 19.44 99.7733 19.76C99.6666 20.08 99.6133 20.3467 99.6133 20.56C99.6133 20.7467 99.6799 20.92 99.8133 21.08C99.9466 21.2133 100.133 21.28 100.373 21.28V22H94.0533V21.28C94.2133 21.2267 94.3733 21.1467 94.5333 21.04C94.7199 20.9333 94.8133 20.7867 94.8133 20.6C94.8133 20.3867 94.7599 20.1467 94.6533 19.88C94.5733 19.6133 94.4266 19.24 94.2133 18.76L89.6133 6.96H89.5333L85.1733 18.52C84.7733 19.56 84.5733 20.2133 84.5733 20.48C84.5733 20.9067 84.7466 21.1733 85.0933 21.28V22H78.8933V21.28C79.0533 21.28 79.2133 21.24 79.3733 21.16C79.5333 21.08 79.6133 20.9467 79.6133 20.76C79.6133 20.5467 79.5599 20.32 79.4533 20.08C79.3733 19.84 79.2799 19.5867 79.1733 19.32L72.7733 2.8C72.6666 2.50667 72.5466 2.26667 72.4133 2.08C72.3066 1.86667 72.1199 1.73333 71.8533 1.68V0.959999H78.0533V1.68ZM116.347 20.68C116.347 20.8933 116.4 21.0533 116.507 21.16C116.64 21.24 116.787 21.28 116.947 21.28V22H111.907V21.28C112.067 21.28 112.2 21.24 112.307 21.16C112.44 21.0533 112.507 20.8933 112.507 20.68V5.72C112.507 5.50667 112.44 5.36 112.307 5.28C112.2 5.17333 112.067 5.12 111.907 5.12V4.4H116.947V5.12C116.787 5.12 116.64 5.17333 116.507 5.28C116.4 5.36 116.347 5.50667 116.347 5.72V11.36H127.067V5.72C127.067 5.50667 127 5.36 126.867 5.28C126.76 5.17333 126.627 5.12 126.467 5.12V4.4H131.507V5.12C131.347 5.12 131.2 5.17333 131.067 5.28C130.96 5.36 130.907 5.50667 130.907 5.72V20.68C130.907 20.8933 130.96 21.0533 131.067 21.16C131.2 21.24 131.347 21.28 131.507 21.28V22H126.467V21.28C126.627 21.28 126.76 21.24 126.867 21.16C127 21.0533 127.067 20.8933 127.067 20.68V14.64H116.347V20.68ZM149.026 14.64L145.786 7.92L142.946 14.64H149.026ZM135.666 21.28C135.986 21.2267 136.24 21.08 136.426 20.84C136.64 20.5733 136.8 20.3333 136.906 20.12L142.866 7.12C143.026 6.74667 143.146 6.45333 143.226 6.24C143.333 6 143.386 5.77333 143.386 5.56C143.386 5.4 143.346 5.30667 143.266 5.28C143.213 5.22667 143.146 5.17333 143.066 5.12V4.4H149.106V5.12C149.026 5.17333 148.933 5.21333 148.826 5.24C148.746 5.26667 148.706 5.37333 148.706 5.56C148.706 5.72 148.76 5.92 148.866 6.16C149 6.37333 149.133 6.62667 149.266 6.92L155.746 20.52C155.88 20.76 156.026 20.9333 156.186 21.04C156.346 21.1467 156.52 21.2267 156.706 21.28V22H151.026V21.4C151.16 21.4 151.293 21.36 151.426 21.28C151.586 21.2 151.666 21.0533 151.666 20.84C151.666 20.68 151.64 20.5333 151.586 20.4C151.533 20.2667 151.466 20.0933 151.386 19.88L150.306 17.6H141.746L140.626 19.76C140.52 19.9733 140.426 20.1733 140.346 20.36C140.293 20.52 140.266 20.6667 140.266 20.8C140.266 21.0133 140.333 21.1467 140.466 21.2C140.6 21.2533 140.786 21.28 141.026 21.28V22H135.666V21.28ZM166.133 4.4V5.12C165.52 5.12 165.213 5.32 165.213 5.72V19.04H176.013C176.333 19.04 176.6 18.9733 176.813 18.84C177.026 18.68 177.133 18.4667 177.133 18.2H177.853V22.4H177.133C177.133 22.1867 177.026 22.0667 176.813 22.04C176.6 22.0133 176.333 22 176.013 22H160.333V21.28C161.026 21.28 161.373 21.08 161.373 20.68V5.72C161.373 5.32 161.026 5.12 160.333 5.12V4.4H166.133ZM192.68 7.36H183.52C183.173 7.36 182.92 7.44 182.76 7.6C182.6 7.76 182.52 7.94667 182.52 8.16H181.8V3.48H182.52C182.52 4.09333 182.853 4.4 183.52 4.4H199.44V5.12L188.28 19.04H197.84C198.453 19.04 198.76 18.76 198.76 18.2H199.48V22.4H198.76C198.76 22.1333 198.453 22 197.84 22H181.8V21.28L192.68 7.36Z" fill="#EA8F36"/>
<path d="M2.25391 15.4L2.70112 14.5056L1.77295 14.0415L1.34354 14.9862L2.25391 15.4ZM2.65391 15.6H3.65391V14.982L3.10112 14.7056L2.65391 15.6ZM2.81391 16.24L1.94563 16.7362L1.95013 16.7439L2.81391 16.24ZM3.89391 17.2L3.37941 18.0575L3.40424 18.0724L3.4299 18.0858L3.89391 17.2ZM5.77391 18L5.44677 18.945L5.45768 18.9487L5.77391 18ZM8.01391 18.6L7.8113 19.5793L7.8276 19.5826L7.844 19.5855L8.01391 18.6ZM11.8539 18.72L11.9278 19.7173L11.9461 19.7159L11.9643 19.7139L11.8539 18.72ZM13.9739 18.28L13.6798 17.3242L13.9739 18.28ZM15.7739 17.4L16.3671 18.2051L15.7739 17.4ZM15.8139 14.56L15.2707 15.3996L15.2815 15.4066L15.2925 15.4133L15.8139 14.56ZM13.9739 13.92L13.7981 14.9044L13.804 14.9055L13.9739 13.92ZM11.3739 13.68L11.3184 14.6785L11.3327 14.6793L11.3469 14.6796L11.3739 13.68ZM8.41391 13.48L8.49261 12.4831L8.41391 13.48ZM5.41391 13.08L5.22303 14.0616L5.22801 14.0626L5.41391 13.08ZM2.81391 12.16L2.29493 13.0148L2.31266 13.0256L2.33083 13.0356L2.81391 12.16ZM0.973906 10.36L0.111208 10.8657L0.121608 10.8835L0.132728 10.9008L0.973906 10.36ZM0.853906 4.92L-0.0405209 4.47279L-0.0465631 4.48487L-0.0522768 4.49711L0.853906 4.92ZM2.65391 2.8L2.04548 2.00639L2.65391 2.8ZM5.69391 1.32L5.98507 2.27667L5.99453 2.27379L6.00393 2.27073L5.69391 1.32ZM13.6939 1.04L13.8949 0.0603952H13.8948L13.6939 1.04ZM16.3739 1.72L16.0679 2.67208L16.0775 2.67506L16.3739 1.72ZM18.2939 2.4L17.9058 3.32163L17.9142 3.32513L17.9225 3.32848L18.2939 2.4ZM20.4139 2.48L20.9686 1.64795L20.2865 1.1932L19.7068 1.77289L20.4139 2.48ZM20.8939 2.8L21.7694 3.28326L22.2138 2.4781L21.4486 1.96795L20.8939 2.8ZM18.1339 7.8L17.7625 8.72848L18.5826 9.05649L19.0094 8.28326L18.1339 7.8ZM17.7339 7.64L16.744 7.78142L16.8257 8.35376L17.3625 8.56848L17.7339 7.64ZM17.4139 6.72L16.5819 7.2747L16.5819 7.2747L17.4139 6.72ZM16.3339 5.8L15.7792 6.63205L15.8055 6.64959L15.8329 6.66543L16.3339 5.8ZM12.4539 4.4L12.2513 5.37926L12.2676 5.38263L12.284 5.38546L12.4539 4.4ZM8.29391 4.32L8.42325 5.3116L8.44082 5.30931L8.45831 5.30639L8.29391 4.32ZM5.33391 5.48L6.00964 6.21716L6.01219 6.2148L5.33391 5.48ZM5.53391 8.04L4.95722 8.85697L4.96811 8.86465L4.97921 8.87205L5.53391 8.04ZM7.37391 8.76L7.16437 9.73783L7.1713 9.73926L7.37391 8.76ZM9.97391 9.08L9.91844 10.0785L9.91993 10.0785L9.97391 9.08ZM12.9739 9.28L12.8952 10.2769L12.9739 9.28ZM15.9339 9.72L15.717 10.6962L15.7324 10.6996L15.748 10.7026L15.9339 9.72ZM18.5339 10.68L18.0149 11.5348L18.0327 11.5456L18.0508 11.5556L18.5339 10.68ZM20.3739 12.44L19.5191 12.959L19.5258 12.97L19.5327 12.9808L20.3739 12.44ZM19.9739 18.76L19.2114 18.113L19.2056 18.1198L19.1999 18.1268L19.9739 18.76ZM17.2539 20.84L16.8334 19.9327L17.2539 20.84ZM13.6939 21.88L13.8205 22.872L13.8294 22.8708L13.8382 22.8695L13.6939 21.88ZM6.33391 21.88L6.15274 22.8635L6.16726 22.8661L6.18185 22.8684L6.33391 21.88ZM3.77391 21.24L3.40252 22.1685L3.42446 22.1773L3.4468 22.185L3.77391 21.24ZM2.17391 20.56L1.70332 21.4424L1.72685 21.4549L1.75102 21.4662L2.17391 20.56ZM0.613906 20.56L0.117768 21.4282L0.884238 21.8662L1.41391 21.16L0.613906 20.56ZM0.0539062 20.24L-0.85646 19.8262L-1.23365 20.656L-0.442233 21.1082L0.0539062 20.24ZM1.80669 16.2944L2.20669 16.4944L3.10112 14.7056L2.70112 14.5056L1.80669 16.2944ZM1.65391 15.6C1.65391 15.9933 1.74294 16.3814 1.94566 16.7361L3.68215 15.7439C3.67154 15.7253 3.65391 15.6867 3.65391 15.6H1.65391ZM1.95013 16.7439C2.26091 17.2766 2.78802 17.7027 3.37941 18.0575L4.4084 16.3425C3.93312 16.0573 3.74024 15.8434 3.67769 15.7361L1.95013 16.7439ZM3.4299 18.0858C4.04033 18.4056 4.71371 18.6912 5.4468 18.945L6.10102 17.055C5.44744 16.8288 4.86748 16.5811 4.35791 16.3142L3.4299 18.0858ZM5.45768 18.9487C6.21639 19.2016 7.00107 19.4116 7.8113 19.5793L8.21651 17.6207C7.48007 17.4684 6.77142 17.2784 6.09013 17.0513L5.45768 18.9487ZM7.844 19.5855C8.65877 19.7259 9.41045 19.8 10.0939 19.8V17.8C9.5507 17.8 8.91571 17.7407 8.18381 17.6145L7.844 19.5855ZM10.0939 19.8C10.5819 19.8 11.1957 19.7715 11.9278 19.7173L11.78 17.7227C11.0721 17.7752 10.5126 17.8 10.0939 17.8V19.8ZM11.9643 19.7139C12.7467 19.627 13.5149 19.4675 14.268 19.2358L13.6798 17.3242C13.0463 17.5192 12.4011 17.653 11.7435 17.7261L11.9643 19.7139ZM14.268 19.2358C15.0527 18.9943 15.7573 18.6544 16.3671 18.2051L15.1807 16.5949C14.7772 16.8923 14.2818 17.139 13.6798 17.3242L14.268 19.2358ZM16.3671 18.2051C17.1217 17.649 17.5339 16.8607 17.5339 15.92H15.5339C15.5339 16.2059 15.4395 16.4043 15.1807 16.5949L16.3671 18.2051ZM17.5339 15.92C17.5339 14.9961 17.1435 14.2006 16.3354 13.7067L15.2925 15.4133C15.4443 15.5061 15.5339 15.6172 15.5339 15.92H17.5339ZM16.3572 13.7204C15.7513 13.3284 14.9948 13.0813 14.1438 12.9345L13.804 14.9055C14.4997 15.0254 14.9698 15.2049 15.2707 15.3996L16.3572 13.7204ZM14.1497 12.9356C13.3418 12.7913 12.4235 12.708 11.4009 12.6804L11.3469 14.6796C12.2976 14.7053 13.1127 14.782 13.7981 14.9044L14.1497 12.9356ZM11.4294 12.6815C10.4776 12.6287 9.49864 12.5625 8.49261 12.4831L8.3352 14.4769C9.35584 14.5575 10.3503 14.6247 11.3184 14.6785L11.4294 12.6815ZM8.49261 12.4831C7.5148 12.4059 6.55059 12.2773 5.5998 12.0974L5.22801 14.0626C6.25056 14.256 7.28635 14.3941 8.3352 14.4769L8.49261 12.4831ZM5.60478 12.0984C4.73623 11.9295 3.96981 11.6556 3.29698 11.2844L2.33083 13.0356C3.20467 13.5177 4.17159 13.8572 5.22304 14.0616L5.60478 12.0984ZM3.33288 11.3052C2.71824 10.932 2.21431 10.4403 1.81508 9.81924L0.132728 10.9008C0.693504 11.7731 1.41624 12.4813 2.29493 13.0148L3.33288 11.3052ZM1.8366 9.85428C1.50037 9.2807 1.29391 8.47171 1.29391 7.36H-0.706094C-0.706094 8.70162 -0.459222 9.89263 0.111208 10.8657L1.8366 9.85428ZM1.29391 7.36C1.29391 6.68925 1.44427 6.01964 1.76009 5.34289L-0.0522768 4.49711C-0.483125 5.42036 -0.706094 6.37742 -0.706094 7.36H1.29391ZM1.74833 5.36721C2.07233 4.71921 2.56731 4.12646 3.26234 3.59361L2.04548 2.00639C1.1405 2.70021 0.43548 3.52078 -0.0405209 4.47279L1.74833 5.36721ZM3.26234 3.59361C3.94528 3.07002 4.84327 2.62418 5.98507 2.27667L5.40275 0.363325C4.09121 0.762488 2.96254 1.30331 2.04548 2.00639L3.26234 3.59361ZM6.00393 2.27073C7.10688 1.91107 8.43777 1.72 10.0139 1.72V-0.280001C8.28338 -0.280001 6.73426 -0.0710697 5.38389 0.369269L6.00393 2.27073ZM10.0139 1.72C11.3804 1.72 12.5367 1.82344 13.493 2.0196L13.8948 0.0603952C12.7711 -0.170108 11.474 -0.280001 10.0139 -0.280001V1.72ZM13.493 2.0196C14.509 2.22801 15.3653 2.4462 16.0679 2.67203L16.6799 0.76797C15.8891 0.513794 14.9589 0.278653 13.8949 0.0603952L13.493 2.0196ZM16.0775 2.67506C16.8328 2.90947 17.4396 3.1253 17.9058 3.32163L18.682 1.47836C18.1349 1.24803 17.4617 1.01053 16.6703 0.764935L16.0775 2.67506ZM17.9225 3.32848C18.5066 3.56211 19.0834 3.72 19.6139 3.72V1.72C19.4511 1.72 19.1479 1.66456 18.6653 1.47152L17.9225 3.32848ZM19.6139 3.72C20.0888 3.72 20.683 3.62517 21.121 3.18711L19.7068 1.77289C19.7678 1.71187 19.8174 1.69891 19.8066 1.70217C19.8009 1.70388 19.783 1.70858 19.7499 1.71272C19.7168 1.71685 19.6721 1.72 19.6139 1.72V3.72ZM19.8592 3.31205L20.3392 3.63205L21.4486 1.96795L20.9686 1.64795L19.8592 3.31205ZM20.0184 2.31674L17.2584 7.31674L19.0094 8.28326L21.7694 3.28326L20.0184 2.31674ZM18.5053 6.87152L18.1053 6.71152L17.3625 8.56848L17.7625 8.72848L18.5053 6.87152ZM18.7239 7.49858C18.6556 7.02103 18.5102 6.56162 18.246 6.1653L16.5819 7.2747C16.6376 7.35838 16.7055 7.5123 16.744 7.78142L18.7239 7.49858ZM18.246 6.1653C17.9147 5.66848 17.4113 5.26824 16.8349 4.93457L15.8329 6.66543C16.2699 6.91842 16.4864 7.13152 16.5819 7.2747L18.246 6.1653ZM16.8886 4.96795C16.3281 4.59424 15.6789 4.28055 14.9526 4.01911L14.2752 5.90089C14.8823 6.11945 15.3798 6.36575 15.7792 6.63205L16.8886 4.96795ZM14.9526 4.01911C14.2256 3.75739 13.4486 3.55674 12.6238 3.41454L12.284 5.38546C13.0059 5.50993 13.6689 5.68261 14.2752 5.90089L14.9526 4.01911ZM12.6565 3.42074C11.8179 3.24724 10.9767 3.16 10.1339 3.16V5.16C10.8377 5.16 11.5432 5.23276 12.2513 5.37926L12.6565 3.42074ZM10.1339 3.16C9.48673 3.16 8.81821 3.21882 8.12951 3.3336L8.45831 5.30639C9.04961 5.20784 9.60775 5.16 10.1339 5.16V3.16ZM8.16457 3.3284C7.48781 3.41667 6.85403 3.56583 6.2682 3.78166L6.95961 5.65834C7.38712 5.50084 7.87334 5.38333 8.42325 5.3116L8.16457 3.3284ZM6.2682 3.78166C5.65606 4.00718 5.11165 4.32425 4.65563 4.7452L6.01219 6.2148C6.2495 5.99575 6.55842 5.80615 6.95961 5.65834L6.2682 3.78166ZM4.65818 4.74285C4.12143 5.23487 3.85391 5.8804 3.85391 6.6H5.85391C5.85391 6.41294 5.90639 6.3118 6.00963 6.21715L4.65818 4.74285ZM3.85391 6.6C3.85391 7.50757 4.19481 8.31879 4.95722 8.85697L6.11059 7.22303C5.96634 7.12121 5.85391 6.97243 5.85391 6.6H3.85391ZM4.97921 8.87205C5.59196 9.28055 6.3322 9.55948 7.16438 9.7378L7.58344 7.7822C6.92228 7.64052 6.43586 7.43945 6.08861 7.20795L4.97921 8.87205ZM7.1713 9.73926C8.00222 9.91117 8.9192 10.0229 9.91844 10.0785L10.0294 8.08154C9.10861 8.03039 8.29226 7.92882 7.57651 7.78074L7.1713 9.73926ZM9.91993 10.0785C10.8981 10.1314 11.8899 10.1975 12.8952 10.2769L13.0526 8.2831C12.0313 8.20247 11.023 8.13525 10.0279 8.08146L9.91993 10.0785ZM12.8952 10.2769C13.8636 10.3533 14.804 10.4933 15.717 10.6962L16.1508 8.74381C15.1438 8.52003 14.1109 8.36665 13.0526 8.2831L12.8952 10.2769ZM15.748 10.7026C16.6343 10.8702 17.3848 11.1522 18.0149 11.5348L19.0529 9.82521C18.1896 9.3011 17.2069 8.94309 16.1198 8.73743L15.748 10.7026ZM18.0508 11.5556C18.673 11.8989 19.1575 12.3633 19.5191 12.959L21.2287 11.921C20.6837 11.0233 19.9415 10.3145 19.017 9.80442L18.0508 11.5556ZM19.5327 12.9808C19.8785 13.5186 20.0939 14.2862 20.0939 15.36H22.0939C22.0939 14.0338 21.8293 12.8547 21.2151 11.8992L19.5327 12.9808ZM20.0939 15.36C20.0939 16.5596 19.7753 17.4484 19.2114 18.113L20.7364 19.407C21.6659 18.3116 22.0939 16.9338 22.0939 15.36H20.0939ZM19.1999 18.1268C18.5813 18.8829 17.7982 19.4856 16.8334 19.9327L17.6744 21.7473C18.8963 21.181 19.9265 20.3971 20.7479 19.3932L19.1999 18.1268ZM16.8334 19.9327C15.8339 20.3959 14.7411 20.7167 13.5496 20.8905L13.8382 22.8695C15.2068 22.67 16.4872 22.2974 17.6744 21.7473L16.8334 19.9327ZM13.5673 20.8881C12.3496 21.0435 11.219 21.12 10.1739 21.12V23.12C11.3155 23.12 12.5315 23.0365 13.8205 22.872L13.5673 20.8881ZM10.1739 21.12C8.68453 21.12 7.45894 21.0413 6.48596 20.8916L6.18185 22.8684C7.28887 23.0387 8.62328 23.12 10.1739 23.12V21.12ZM6.51507 20.8965C5.53314 20.7157 4.73201 20.5134 4.10102 20.295L3.4468 22.185C4.20247 22.4466 5.10801 22.671 6.15274 22.8635L6.51507 20.8965ZM4.1453 20.3115C3.48672 20.0481 2.97271 19.8292 2.59679 19.6538L1.75102 21.4662C2.1751 21.6641 2.72776 21.8986 3.40252 22.1685L4.1453 20.3115ZM2.64449 19.6776C2.17148 19.4254 1.65703 19.24 1.13391 19.24V21.24C1.19745 21.24 1.37633 21.268 1.70332 21.4424L2.64449 19.6776ZM1.13391 19.24C0.512996 19.24 0.0772228 19.6089 -0.186094 19.96L1.41391 21.16C1.44073 21.1242 1.4358 21.1422 1.388 21.1717C1.33181 21.2062 1.24221 21.24 1.13391 21.24V19.24ZM1.11005 19.6918L0.550045 19.3718L-0.442233 21.1082L0.117768 21.4282L1.11005 19.6918ZM0.964273 20.6538L3.16427 15.8138L1.34354 14.9862L-0.85646 19.8262L0.964273 20.6538ZM33.6136 7.56L33.9298 8.50868L33.9389 8.50564L33.948 8.50243L33.6136 7.56ZM31.4536 8.76L32.0743 9.54404L32.0841 9.53625L32.0938 9.52822L31.4536 8.76ZM29.8936 10.64L29.0121 10.1678L29.0055 10.1802L28.9992 10.1928L29.8936 10.64ZM29.8936 15.76L28.9992 16.2072L29.0055 16.2198L29.0121 16.2322L29.8936 15.76ZM31.4536 17.68L30.8134 18.4482L30.8231 18.4563L30.8329 18.464L31.4536 17.68ZM33.6136 18.88L33.2693 19.8189L33.2878 19.8257L33.3066 19.8317L33.6136 18.88ZM38.6136 18.88L38.9298 19.8287L38.9389 19.8256L38.948 19.8224L38.6136 18.88ZM40.8136 17.68L41.4343 18.464L41.4441 18.4563L41.4538 18.4482L40.8136 17.68ZM42.3336 15.76L41.4521 15.2878L41.4455 15.3002L41.4392 15.3128L42.3336 15.76ZM42.3336 10.64L41.4392 11.0872L41.4455 11.0998L41.4521 11.1122L42.3336 10.64ZM40.8136 8.76L40.1734 9.52822L40.1831 9.53625L40.1929 9.54404L40.8136 8.76ZM38.6136 7.56L38.2693 8.49887L38.2878 8.50566L38.3066 8.51171L38.6136 7.56ZM40.2536 4.72L39.9736 5.68001L39.9789 5.68152L40.2536 4.72ZM43.6536 6.4L43.0397 7.18935L43.6536 6.4ZM45.9336 9.24L45.035 9.67885L45.0392 9.68721L45.9336 9.24ZM45.9336 17.2L46.8281 17.6472L46.8322 17.6388L45.9336 17.2ZM43.6536 20L44.2675 20.7894L43.6536 20ZM40.2536 21.64L40.4961 22.6101L40.5031 22.6084L40.51 22.6066L40.2536 21.64ZM31.9736 21.64L31.7122 22.6052L31.7239 22.6084L31.7357 22.6113L31.9736 21.64ZM28.6136 20L27.9997 20.7894L28.6136 20ZM26.3336 17.2L25.435 17.6389L25.4392 17.6472L26.3336 17.2ZM26.3336 9.24L27.2281 9.68723L27.2322 9.67883L26.3336 9.24ZM31.9736 4.72L31.6989 3.75846L31.6936 3.76L31.9736 4.72ZM36.1336 6.12C35.1631 6.12 34.2102 6.28722 33.2792 6.61757L33.948 8.50243C34.6703 8.24611 35.3974 8.12 36.1336 8.12V6.12ZM33.2974 6.61132C32.3806 6.91692 31.5504 7.37763 30.8134 7.99178L32.0938 9.52822C32.6368 9.0757 33.2466 8.73641 33.9298 8.50868L33.2974 6.61132ZM30.8329 7.97595C30.0815 8.57083 29.4743 9.30507 29.0121 10.1678L30.7751 11.1122C31.1129 10.4816 31.5457 9.9625 32.0743 9.54404L30.8329 7.97595ZM28.9992 10.1928C28.5467 11.0978 28.3336 12.1081 28.3336 13.2H30.3336C30.3336 12.3719 30.4939 11.6756 30.788 11.0872L28.9992 10.1928ZM28.3336 13.2C28.3336 14.2919 28.5467 15.3022 28.9992 16.2072L30.788 15.3128C30.4939 14.7244 30.3336 14.0281 30.3336 13.2H28.3336ZM29.0121 16.2322C29.4717 17.0902 30.073 17.8312 30.8134 18.4482L32.0938 16.9118C31.5542 16.4621 31.1154 15.9231 30.7751 15.2878L29.0121 16.2322ZM30.8329 18.464C31.5598 19.0395 32.374 19.4906 33.2693 19.8189L33.9578 17.9411C33.2532 17.6828 32.6274 17.3338 32.0743 16.896L30.8329 18.464ZM33.3066 19.8317C34.2306 20.1298 35.1742 20.28 36.1336 20.28V18.28C35.3864 18.28 34.6499 18.1635 33.9206 17.9283L33.3066 19.8317ZM36.1336 20.28C37.0931 20.28 38.0266 20.1297 38.9298 19.8287L38.2974 17.9313C37.6006 18.1636 36.8807 18.28 36.1336 18.28V20.28ZM38.948 19.8224C39.8704 19.4951 40.702 19.0438 41.4343 18.464L40.1929 16.896C39.6452 17.3296 39.0101 17.6782 38.2792 17.9376L38.948 19.8224ZM41.4538 18.4482C42.2 17.8264 42.7931 17.077 43.228 16.2072L41.4392 15.3128C41.1274 15.9363 40.7072 16.467 40.1734 16.9118L41.4538 18.4482ZM43.2151 16.2322C43.7027 15.3219 43.9336 14.3025 43.9336 13.2H41.9336C41.9336 14.0175 41.7644 14.7048 41.4521 15.2878L43.2151 16.2322ZM43.9336 13.2C43.9336 12.0975 43.7027 11.0781 43.2151 10.1678L41.4521 11.1122C41.7644 11.6952 41.9336 12.3825 41.9336 13.2H43.9336ZM43.228 10.1928C42.7907 9.31822 42.1918 8.57561 41.4343 7.97595L40.1929 9.54404C40.7154 9.95773 41.1298 10.4684 41.4392 11.0872L43.228 10.1928ZM41.4538 7.99178C40.7113 7.37305 39.8638 6.91254 38.9206 6.60829L38.3066 8.51171C39.0168 8.7408 39.6359 9.08028 40.1734 9.52822L41.4538 7.99178ZM38.9578 6.62112C38.0474 6.2873 37.1042 6.12 36.1336 6.12V8.12C36.8697 8.12 37.5798 8.24604 38.2693 8.49887L38.9578 6.62112ZM36.1336 5.16C37.5149 5.16 38.7931 5.3357 39.9736 5.68L40.5336 3.76C39.154 3.35763 37.6856 3.16 36.1336 3.16V5.16ZM39.9789 5.68152C41.1769 6.02382 42.1919 6.52996 43.0397 7.18935L44.2675 5.61065C43.1953 4.77671 41.9436 4.16285 40.5283 3.75848L39.9789 5.68152ZM43.0397 7.18935C43.8734 7.83778 44.5386 8.66224 45.035 9.67883L46.8322 8.80116C46.2086 7.52442 45.3538 6.45555 44.2675 5.61065L43.0397 7.18935ZM45.0392 9.68721C45.5164 10.6418 45.7736 11.8025 45.7736 13.2H47.7736C47.7736 11.5575 47.4707 10.0782 46.828 8.79279L45.0392 9.68721ZM45.7736 13.2C45.7736 14.5967 45.5167 15.7749 45.035 16.7612L46.8322 17.6388C47.4705 16.3318 47.7736 14.8433 47.7736 13.2H45.7736ZM45.0392 16.7528C44.5439 17.7433 43.8782 18.5584 43.0397 19.2106L44.2675 20.7894C45.3489 19.9483 46.2033 18.8967 46.828 17.6472L45.0392 16.7528ZM43.0397 19.2106C42.197 19.8661 41.1885 20.3574 39.9972 20.6734L40.51 22.6066C41.932 22.2293 43.1902 21.6273 44.2675 20.7894L43.0397 19.2106ZM40.0111 20.6699C38.8186 20.968 37.5275 21.12 36.1336 21.12V23.12C37.673 23.12 39.1286 22.952 40.4961 22.6101L40.0111 20.6699ZM36.1336 21.12C34.7399 21.12 33.4336 20.968 32.2115 20.6687L31.7357 22.6113C33.1269 22.952 34.5939 23.12 36.1336 23.12V21.12ZM32.235 20.6748C31.0714 20.3596 30.0737 19.8688 29.2275 19.2106L27.9997 20.7894C29.0735 21.6245 30.3158 22.227 31.7122 22.6052L32.235 20.6748ZM29.2275 19.2106C28.3889 18.5584 27.7233 17.7433 27.228 16.7528L25.4392 17.6472C26.0639 18.8967 26.9182 19.9483 27.9997 20.7894L29.2275 19.2106ZM27.2322 16.7612C26.7505 15.7749 26.4936 14.5967 26.4936 13.2H24.4936C24.4936 14.8433 24.7967 16.3318 25.435 17.6388L27.2322 16.7612ZM26.4936 13.2C26.4936 11.8025 26.7507 10.6418 27.228 9.68721L25.4392 8.79279C24.7964 10.0782 24.4936 11.5575 24.4936 13.2H26.4936ZM27.2322 9.67883C27.7286 8.66224 28.3938 7.83778 29.2275 7.18935L27.9997 5.61065C26.9133 6.45555 26.0586 7.52442 25.435 8.80116L27.2322 9.67883ZM29.2275 7.18935C30.0788 6.52726 31.083 6.02143 32.2536 5.68L31.6936 3.76C30.3042 4.16524 29.0684 4.77941 27.9997 5.61065L29.2275 7.18935ZM32.2483 5.68152C33.4589 5.33565 34.7525 5.16 36.1336 5.16V3.16C34.5813 3.16 33.1017 3.35768 31.6989 3.75848L32.2483 5.68152ZM57.2267 4.4H58.2267V3.4H57.2267V4.4ZM57.2267 5.12V6.12H58.2267V5.12H57.2267ZM56.3067 19.04H55.3067V20.04H56.3067V19.04ZM67.9067 18.84L68.4367 19.688L68.4727 19.6655L68.5067 19.64L67.9067 18.84ZM68.2267 18.2V17.2H67.2267V18.2H68.2267ZM68.9467 18.2H69.9467V17.2H68.9467V18.2ZM68.9467 22.4V23.4H69.9467V22.4H68.9467ZM68.2267 22.4H67.2267V23.4H68.2267V22.4ZM67.9067 22.04L68.0308 21.0477L67.9067 22.04ZM51.4267 22H50.4267V23H51.4267V22ZM51.4267 21.28V20.28H50.4267V21.28H51.4267ZM51.4267 5.12H50.4267V6.12H51.4267V5.12ZM51.4267 4.4V3.4H50.4267V4.4H51.4267ZM56.2267 4.4V5.12H58.2267V4.4H56.2267ZM57.2267 4.12C56.8433 4.12 56.3825 4.17673 55.9905 4.43239C55.5243 4.73639 55.3067 5.21918 55.3067 5.72H57.3067C57.3067 5.74877 57.3006 5.82263 57.2547 5.91261C57.2068 6.00625 57.1394 6.07082 57.083 6.10761C57.0333 6.14001 57.0081 6.14088 57.0366 6.13468C57.0646 6.12861 57.1246 6.12 57.2267 6.12V4.12ZM55.3067 5.72V19.04H57.3067V5.72H55.3067ZM56.3067 20.04H67.1067V18.04H56.3067V20.04ZM67.1067 20.04C67.5637 20.04 68.0265 19.9444 68.4367 19.688L67.3767 17.992C67.3603 18.0023 67.2897 18.04 67.1067 18.04V20.04ZM68.5067 19.64C68.9719 19.2911 69.2267 18.7814 69.2267 18.2H67.2267C67.2267 18.2 67.2267 18.2 67.2267 18.1999C67.2267 18.1998 67.2267 18.1997 67.2267 18.1995C67.2267 18.1992 67.2268 18.1988 67.2268 18.1982C67.2268 18.1969 67.227 18.1952 67.2272 18.1928C67.2277 18.1881 67.2287 18.1814 67.2305 18.1731C67.2344 18.1557 67.2413 18.1348 67.2523 18.1128C67.2762 18.0649 67.304 18.042 67.3067 18.04L68.5067 19.64ZM68.2267 19.2H68.9467V17.2H68.2267V19.2ZM67.9467 18.2V22.4H69.9467V18.2H67.9467ZM68.9467 21.4H68.2267V23.4H68.9467V21.4ZM69.2267 22.4C69.2267 22.1303 69.1574 21.7818 68.8941 21.4856C68.6318 21.1906 68.2955 21.0808 68.0308 21.0477L67.7827 23.0323C67.7312 23.0258 67.5549 22.9894 67.3993 22.8144C67.2427 22.6382 67.2267 22.4564 67.2267 22.4H69.2267ZM68.0308 21.0477C67.7617 21.0141 67.4503 21 67.1067 21V23C67.4032 23 67.6251 23.0126 67.7827 23.0323L68.0308 21.0477ZM67.1067 21H51.4267V23H67.1067V21ZM52.4267 22V21.28H50.4267V22H52.4267ZM51.4267 22.28C51.8368 22.28 52.307 22.2266 52.7064 21.9962C53.1891 21.7177 53.4667 21.2376 53.4667 20.68H51.4667C51.4667 20.6318 51.4785 20.5415 51.5359 20.4422C51.5932 20.343 51.6655 20.2878 51.707 20.2638C51.7423 20.2435 51.7467 20.2501 51.6929 20.2605C51.6408 20.2705 51.5549 20.28 51.4267 20.28V22.28ZM53.4667 20.68V5.72H51.4667V20.68H53.4667ZM53.4667 5.72C53.4667 5.16237 53.1891 4.68228 52.7064 4.40381C52.307 4.17338 51.8368 4.12 51.4267 4.12V6.12C51.5549 6.12 51.6408 6.12949 51.6929 6.13951C51.7467 6.14986 51.7423 6.15653 51.707 6.13618C51.6655 6.11225 51.5932 6.05699 51.5359 5.95778C51.4785 5.85854 51.4667 5.76816 51.4667 5.72H53.4667ZM52.4267 5.12V4.4H50.4267V5.12H52.4267ZM51.4267 5.4H57.2267V3.4H51.4267V5.4ZM78.0533 1.68V2.68H79.0533V1.68H78.0533ZM77.4933 2.92L76.5033 3.06142L76.513 3.12904L76.5318 3.19472L77.4933 2.92ZM77.8133 3.84L76.8769 4.19114L76.88 4.1992L77.8133 3.84ZM82.0933 14.96L81.16 15.3192L81.4067 15.96H82.0933V14.96ZM82.1733 14.96V15.96H82.8657L83.1093 15.3118L82.1733 14.96ZM86.4133 3.68L85.4799 3.32101L85.4772 3.32815L86.4133 3.68ZM86.6533 2.92L85.6918 2.64528L85.6762 2.69973L85.6669 2.7556L86.6533 2.92ZM86.2133 1.68H85.2133V2.68H86.2133V1.68ZM86.2133 0.959999V-0.0400009H85.2133V0.959999H86.2133ZM93.0533 0.959999H94.0533V-0.0400009H93.0533V0.959999ZM93.0533 1.68V2.68H94.0533V1.68H93.0533ZM92.6533 1.88L91.7958 1.3655L91.7958 1.36551L92.6533 1.88ZM92.9333 3.68L93.8682 3.32524L93.8625 3.31022L93.8564 3.29538L92.9333 3.68ZM97.2133 14.96L96.2783 15.3148L96.5231 15.96H97.2133V14.96ZM97.2933 14.96V15.96H97.9863L98.2296 15.3111L97.2933 14.96ZM101.613 3.44L100.707 3.01711L100.691 3.05241L100.677 3.08888L101.613 3.44ZM101.693 1.92L100.925 2.56018L100.954 2.59503L100.986 2.62711L101.693 1.92ZM101.213 1.68H100.213V2.68H101.213V1.68ZM101.213 0.959999V-0.0400009H100.213V0.959999H101.213ZM107.133 0.959999H108.133V-0.0400009H107.133V0.959999ZM107.133 1.68V2.68H108.133V1.68H107.133ZM106.453 2.16L105.559 1.71278L105.543 1.74359L105.53 1.77538L106.453 2.16ZM105.973 3.36L105.041 2.99753L105.038 3.00727L105.973 3.36ZM100.213 18.64L99.2776 18.2873L99.277 18.2889L100.213 18.64ZM99.7733 19.76L98.8502 19.3754L98.8362 19.4091L98.8246 19.4438L99.7733 19.76ZM99.8133 21.08L99.0451 21.7202L99.0741 21.755L99.1062 21.7871L99.8133 21.08ZM100.373 21.28H101.373V20.28H100.373V21.28ZM100.373 22V23H101.373V22H100.373ZM94.0533 22H93.0533V23H94.0533V22ZM94.0533 21.28L93.7371 20.3313L93.0533 20.5592V21.28H94.0533ZM94.5333 21.04L94.0371 20.1718L94.0072 20.1888L93.9786 20.2079L94.5333 21.04ZM94.6533 19.88L93.6955 20.1673L93.7083 20.21L93.7248 20.2514L94.6533 19.88ZM94.2133 18.76L93.2816 19.1232L93.29 19.1449L93.2995 19.1661L94.2133 18.76ZM89.6133 6.96L90.545 6.59679L90.2968 5.96H89.6133V6.96ZM89.5333 6.96V5.96H88.8417L88.5976 6.6071L89.5333 6.96ZM85.1733 18.52L86.1066 18.879L86.1089 18.8729L85.1733 18.52ZM85.0933 21.28H86.0933V20.5414L85.3874 20.3242L85.0933 21.28ZM85.0933 22V23H86.0933V22H85.0933ZM78.8933 22H77.8933V23H78.8933V22ZM78.8933 21.28V20.28H77.8933V21.28H78.8933ZM79.3733 21.16L78.9261 20.2656L79.3733 21.16ZM79.4533 20.08L78.5046 20.3962L78.5199 20.442L78.5395 20.4861L79.4533 20.08ZM79.1733 19.32L78.2408 19.6813L78.2448 19.6914L79.1733 19.32ZM72.7733 2.8L71.8335 3.14174L71.8371 3.15153L71.8408 3.16125L72.7733 2.8ZM72.4133 2.08L71.5189 2.52721L71.5539 2.59739L71.5995 2.66124L72.4133 2.08ZM71.8533 1.68H70.8533V2.49981L71.6572 2.66058L71.8533 1.68ZM71.8533 0.959999V-0.0400009H70.8533V0.959999H71.8533ZM78.0533 0.959999H79.0533V-0.0400009H78.0533V0.959999ZM78.0533 0.679999C77.628 0.679999 77.153 0.826549 76.8184 1.25035C76.5194 1.62912 76.4533 2.08212 76.4533 2.44H78.4533C78.4533 2.37585 78.46 2.35401 78.4579 2.36199C78.4553 2.37171 78.4397 2.42431 78.3882 2.48964C78.3327 2.55983 78.2586 2.61547 78.1798 2.64875C78.107 2.67947 78.0572 2.68 78.0533 2.68V0.679999ZM76.4533 2.44C76.4533 2.63555 76.4725 2.84543 76.5033 3.06142L78.4832 2.77858C78.4608 2.62124 78.4533 2.51111 78.4533 2.44H76.4533ZM76.5318 3.19472C76.5972 3.42379 76.7167 3.76365 76.877 4.19112L78.7496 3.48888C78.5899 3.06301 78.496 2.78955 78.4548 2.64528L76.5318 3.19472ZM76.88 4.1992L81.16 15.3192L83.0265 14.6008L78.7465 3.48079L76.88 4.1992ZM82.0933 15.96H82.1733V13.96H82.0933V15.96ZM83.1093 15.3118L87.3493 4.03185L85.4772 3.32815L81.2372 14.6081L83.1093 15.3118ZM87.3466 4.03898C87.4813 3.6888 87.5949 3.35309 87.6397 3.0844L85.6669 2.7556C85.6583 2.80691 85.6119 2.97786 85.4799 3.32102L87.3466 4.03898ZM87.6148 3.19472C87.6832 2.95549 87.7333 2.698 87.7333 2.44H85.7333C85.7333 2.44 85.7333 2.44 85.7333 2.44C85.7333 2.44001 85.7333 2.44001 85.7333 2.44001C85.7333 2.44002 85.7333 2.44004 85.7333 2.44006C85.7333 2.4401 85.7333 2.44016 85.7333 2.44023C85.7333 2.44039 85.7333 2.44062 85.7333 2.44093C85.7333 2.44155 85.7332 2.44246 85.7332 2.44368C85.733 2.44614 85.7328 2.44971 85.7324 2.45446C85.7315 2.46407 85.7299 2.47767 85.7269 2.4956C85.7208 2.532 85.71 2.58141 85.6918 2.64528L87.6148 3.19472ZM87.7333 2.44C87.7333 2.10376 87.6814 1.67483 87.4286 1.30532C87.1291 0.867587 86.667 0.679999 86.2133 0.679999V2.68C86.178 2.68 86.0987 2.67321 86.0028 2.62649C85.9023 2.57751 85.8264 2.50539 85.778 2.43468C85.7341 2.37052 85.7249 2.32568 85.7258 2.32986C85.7268 2.33396 85.7333 2.36717 85.7333 2.44H87.7333ZM87.2133 1.68V0.959999H85.2133V1.68H87.2133ZM86.2133 1.96H93.0533V-0.0400009H86.2133V1.96ZM92.0533 0.959999V1.68H94.0533V0.959999H92.0533ZM93.0533 0.679999C92.5979 0.679999 92.0953 0.866357 91.7958 1.3655L93.5108 2.3945C93.4574 2.48353 93.3715 2.56894 93.2605 2.62443C93.1577 2.67581 93.077 2.68 93.0533 2.68V0.679999ZM91.7958 1.36551C91.6197 1.65892 91.5333 1.98427 91.5333 2.32H93.5333C93.5333 2.32422 93.5326 2.33631 93.528 2.35311C93.5234 2.3701 93.5168 2.38447 93.5108 2.39449L91.7958 1.36551ZM91.5333 2.32C91.5333 2.59532 91.5977 2.88287 91.6739 3.14217C91.7543 3.41557 91.8687 3.72505 92.0102 4.06461L93.8564 3.29538C93.7312 2.99494 93.6456 2.75776 93.5927 2.57783C93.5356 2.3838 93.5333 2.31135 93.5333 2.32H91.5333ZM91.9983 4.03475L96.2783 15.3148L98.1482 14.6052L93.8682 3.32524L91.9983 4.03475ZM97.2133 15.96H97.2933V13.96H97.2133V15.96ZM98.2296 15.3111L102.55 3.79112L100.677 3.08888L96.357 14.6089L98.2296 15.3111ZM102.519 3.86289C102.746 3.37771 102.893 2.87056 102.893 2.36H100.893C100.893 2.48944 100.854 2.70229 100.707 3.01711L102.519 3.86289ZM102.893 2.36C102.893 1.88783 102.685 1.49772 102.4 1.21289L100.986 2.62711C100.982 2.62316 100.957 2.59651 100.933 2.54381C100.908 2.48811 100.893 2.42377 100.893 2.36H102.893ZM102.462 1.27981C102.163 0.921588 101.733 0.679999 101.213 0.679999V2.68C101.158 2.68 101.091 2.6669 101.026 2.63443C100.964 2.60343 100.932 2.56892 100.925 2.56018L102.462 1.27981ZM102.213 1.68V0.959999H100.213V1.68H102.213ZM101.213 1.96H107.133V-0.0400009H101.213V1.96ZM106.133 0.959999V1.68H108.133V0.959999H106.133ZM107.133 0.679999C106.793 0.679999 106.459 0.776912 106.167 0.983031C105.885 1.18177 105.692 1.44674 105.559 1.71278L107.348 2.60721C107.375 2.55326 107.375 2.57822 107.32 2.61697C107.292 2.63664 107.258 2.6541 107.22 2.66578C107.182 2.6773 107.152 2.68 107.133 2.68V0.679999ZM105.53 1.77538C105.393 2.10533 105.23 2.51331 105.041 2.99755L106.905 3.72244C107.09 3.24668 107.247 2.85467 107.376 2.54461L105.53 1.77538ZM105.038 3.00727L99.2776 18.2873L101.149 18.9927L106.909 3.71273L105.038 3.00727ZM99.277 18.2889C99.1199 18.7076 98.9778 19.0693 98.8502 19.3754L100.696 20.1446C100.835 19.8107 100.987 19.4258 101.15 18.9911L99.277 18.2889ZM98.8246 19.4438C98.7013 19.8137 98.6133 20.1954 98.6133 20.56H100.613C100.613 20.4979 100.632 20.3463 100.722 20.0762L98.8246 19.4438ZM98.6133 20.56C98.6133 21.0079 98.7804 21.4026 99.0451 21.7202L100.582 20.4398C100.576 20.4338 100.586 20.444 100.597 20.471C100.608 20.4995 100.613 20.5312 100.613 20.56H98.6133ZM99.1062 21.7871C99.4747 22.1556 99.944 22.28 100.373 22.28V20.28C100.344 20.28 100.355 20.2759 100.39 20.2883C100.428 20.3021 100.477 20.3295 100.52 20.3729L99.1062 21.7871ZM99.3733 21.28V22H101.373V21.28H99.3733ZM100.373 21H94.0533V23H100.373V21ZM95.0533 22V21.28H93.0533V22H95.0533ZM94.3695 22.2287C94.6247 22.1436 94.8642 22.0213 95.088 21.8721L93.9786 20.2079C93.8824 20.2721 93.8019 20.3097 93.7371 20.3313L94.3695 22.2287ZM95.0294 21.9082C95.471 21.6559 95.8133 21.2063 95.8133 20.6H93.8133C93.8133 20.5178 93.8366 20.4122 93.8996 20.3131C93.9584 20.2207 94.0223 20.1802 94.0371 20.1718L95.0294 21.9082ZM95.8133 20.6C95.8133 20.2237 95.7203 19.8549 95.5818 19.5086L93.7248 20.2514C93.7996 20.4384 93.8133 20.5496 93.8133 20.6H95.8133ZM95.6111 19.5927C95.5126 19.2644 95.3454 18.845 95.1271 18.3539L93.2995 19.1661C93.5078 19.635 93.6339 19.9623 93.6955 20.1673L95.6111 19.5927ZM95.145 18.3968L90.545 6.59679L88.6816 7.32321L93.2816 19.1232L95.145 18.3968ZM89.6133 5.96H89.5333V7.96H89.6133V5.96ZM88.5976 6.6071L84.2376 18.1671L86.1089 18.8729L90.4689 7.3129L88.5976 6.6071ZM84.2399 18.161C84.0361 18.6911 83.8768 19.1388 83.7671 19.4973C83.6695 19.8159 83.5733 20.1785 83.5733 20.48H85.5733C85.5733 20.5148 85.577 20.4174 85.6795 20.0827C85.7698 19.7878 85.9105 19.3889 86.1066 18.879L84.2399 18.161ZM83.5733 20.48C83.5733 20.8223 83.6424 21.2027 83.8648 21.545C84.097 21.9022 84.4352 22.1238 84.7992 22.2358L85.3874 20.3242C85.3906 20.3252 85.4152 20.3334 85.449 20.3577C85.4843 20.383 85.5169 20.4168 85.5417 20.455C85.5908 20.5306 85.5733 20.5643 85.5733 20.48H83.5733ZM84.0933 21.28V22H86.0933V21.28H84.0933ZM85.0933 21H78.8933V23H85.0933V21ZM79.8933 22V21.28H77.8933V22H79.8933ZM78.8933 22.28C79.226 22.28 79.5382 22.1956 79.8205 22.0544L78.9261 20.2656C78.9059 20.2757 78.8943 20.279 78.8907 20.2799C78.8876 20.2806 78.889 20.28 78.8933 20.28V22.28ZM79.8205 22.0544C80.0444 21.9425 80.2589 21.7677 80.4108 21.5145C80.5612 21.2638 80.6133 20.9981 80.6133 20.76H78.6133C78.6133 20.7086 78.6254 20.6028 78.6958 20.4855C78.7677 20.3657 78.8621 20.2975 78.9261 20.2656L79.8205 22.0544ZM80.6133 20.76C80.6133 20.3783 80.5178 20.0129 80.3671 19.6739L78.5395 20.4861C78.6021 20.6271 78.6133 20.715 78.6133 20.76H80.6133ZM80.402 19.7638C80.315 19.5029 80.2147 19.2311 80.1018 18.9486L78.2448 19.6914C78.3451 19.9423 78.4315 20.1771 78.5046 20.3962L80.402 19.7638ZM80.1058 18.9588L73.7057 2.43875L71.8408 3.16125L78.2408 19.6812L80.1058 18.9588ZM73.7131 2.45826C73.5858 2.10815 73.4281 1.78028 73.227 1.49876L71.5995 2.66124C71.6651 2.75305 71.7475 2.90519 71.8335 3.14174L73.7131 2.45826ZM73.3077 1.63279C73.0425 1.10233 72.5705 0.803645 72.0494 0.699418L71.6572 2.66058C71.6772 2.66458 71.6532 2.66312 71.612 2.63373C71.5673 2.60177 71.5355 2.56043 71.5189 2.52721L73.3077 1.63279ZM72.8533 1.68V0.959999H70.8533V1.68H72.8533ZM71.8533 1.96H78.0533V-0.0400009H71.8533V1.96ZM77.0533 0.959999V1.68H79.0533V0.959999H77.0533ZM116.507 21.16L115.8 21.8671L115.887 21.9542L115.992 22.0175L116.507 21.16ZM116.947 21.28H117.947V20.28H116.947V21.28ZM116.947 22V23H117.947V22H116.947ZM111.907 22H110.907V23H111.907V22ZM111.907 21.28V20.28H110.907V21.28H111.907ZM112.307 21.16L112.907 21.96L112.919 21.9506L112.931 21.9409L112.307 21.16ZM112.307 5.28L111.6 5.98711L111.687 6.07416L111.792 6.13749L112.307 5.28ZM111.907 5.12H110.907V6.12H111.907V5.12ZM111.907 4.4V3.4H110.907V4.4H111.907ZM116.947 4.4H117.947V3.4H116.947V4.4ZM116.947 5.12V6.12H117.947V5.12H116.947ZM116.507 5.28L117.107 6.08L117.119 6.07063L117.131 6.06087L116.507 5.28ZM116.347 11.36H115.347V12.36H116.347V11.36ZM127.067 11.36V12.36H128.067V11.36H127.067ZM126.867 5.28L126.16 5.9871L126.247 6.07415L126.352 6.13749L126.867 5.28ZM126.467 5.12H125.467V6.12H126.467V5.12ZM126.467 4.4V3.4H125.467V4.4H126.467ZM131.507 4.4H132.507V3.4H131.507V4.4ZM131.507 5.12V6.12H132.507V5.12H131.507ZM131.067 5.28L131.667 6.08L131.679 6.07063L131.691 6.06087L131.067 5.28ZM131.067 21.16L130.36 21.8671L130.447 21.9542L130.552 22.0175L131.067 21.16ZM131.507 21.28H132.507V20.28H131.507V21.28ZM131.507 22V23H132.507V22H131.507ZM126.467 22H125.467V23H126.467V22ZM126.467 21.28V20.28H125.467V21.28H126.467ZM126.867 21.16L127.467 21.96L127.479 21.9506L127.491 21.9409L126.867 21.16ZM127.067 14.64H128.067V13.64H127.067V14.64ZM116.347 14.64V13.64H115.347V14.64H116.347ZM115.347 20.68C115.347 21.0475 115.439 21.5068 115.8 21.8671L117.214 20.4529C117.283 20.5217 117.319 20.5941 117.335 20.6438C117.35 20.6886 117.347 20.7063 117.347 20.68H115.347ZM115.992 22.0175C116.286 22.1935 116.611 22.28 116.947 22.28V20.28C116.951 20.28 116.963 20.2807 116.98 20.2852C116.997 20.2899 117.011 20.2965 117.021 20.3025L115.992 22.0175ZM115.947 21.28V22H117.947V21.28H115.947ZM116.947 21H111.907V23H116.947V21ZM112.907 22V21.28H110.907V22H112.907ZM111.907 22.28C112.239 22.28 112.594 22.1942 112.907 21.96L111.707 20.36C111.752 20.3263 111.798 20.3045 111.839 20.2922C111.879 20.2804 111.904 20.28 111.907 20.28V22.28ZM112.931 21.9409C113.36 21.598 113.507 21.114 113.507 20.68H111.507C111.507 20.6842 111.506 20.6419 111.534 20.5754C111.564 20.5028 111.615 20.4324 111.682 20.3791L112.931 21.9409ZM113.507 20.68V5.72H111.507V20.68H113.507ZM113.507 5.72C113.507 5.30153 113.363 4.7475 112.821 4.42251L111.792 6.13749C111.678 6.06922 111.594 5.968 111.546 5.8638C111.505 5.77229 111.507 5.71201 111.507 5.72H113.507ZM113.014 4.57289C112.707 4.26643 112.314 4.12 111.907 4.12V6.12C111.874 6.12 111.82 6.11416 111.755 6.08848C111.69 6.06232 111.637 6.02461 111.6 5.98711L113.014 4.57289ZM112.907 5.12V4.4H110.907V5.12H112.907ZM111.907 5.4H116.947V3.4H111.907V5.4ZM115.947 4.4V5.12H117.947V4.4H115.947ZM116.947 4.12C116.544 4.12 116.18 4.26084 115.882 4.49913L117.131 6.06087C117.121 6.06918 117.097 6.08591 117.058 6.09979C117.019 6.11397 116.98 6.12 116.947 6.12V4.12ZM115.907 4.48C115.427 4.83959 115.347 5.38243 115.347 5.72H117.347C117.347 5.69005 117.351 5.72349 117.327 5.79174C117.298 5.86916 117.234 5.98474 117.107 6.08L115.907 4.48ZM115.347 5.72V11.36H117.347V5.72H115.347ZM116.347 12.36H127.067V10.36H116.347V12.36ZM128.067 11.36V5.72H126.067V11.36H128.067ZM128.067 5.72C128.067 5.30153 127.923 4.7475 127.381 4.42251L126.352 6.13749C126.238 6.06922 126.154 5.968 126.106 5.8638C126.065 5.77229 126.067 5.71201 126.067 5.72H128.067ZM127.574 4.5729C127.267 4.26643 126.874 4.12 126.467 4.12V6.12C126.434 6.12 126.38 6.11416 126.315 6.08848C126.25 6.06232 126.197 6.02461 126.16 5.9871L127.574 4.5729ZM127.467 5.12V4.4H125.467V5.12H127.467ZM126.467 5.4H131.507V3.4H126.467V5.4ZM130.507 4.4V5.12H132.507V4.4H130.507ZM131.507 4.12C131.104 4.12 130.74 4.26084 130.442 4.49913L131.691 6.06087C131.681 6.06918 131.657 6.08591 131.618 6.09979C131.579 6.11397 131.54 6.12 131.507 6.12V4.12ZM130.467 4.48C129.987 4.83959 129.907 5.38243 129.907 5.72H131.907C131.907 5.69005 131.911 5.72349 131.887 5.79174C131.858 5.86917 131.794 5.98474 131.667 6.08L130.467 4.48ZM129.907 5.72V20.68H131.907V5.72H129.907ZM129.907 20.68C129.907 21.0475 129.999 21.5068 130.36 21.8671L131.774 20.4529C131.843 20.5217 131.879 20.5941 131.895 20.6438C131.91 20.6886 131.907 20.7063 131.907 20.68H129.907ZM130.552 22.0175C130.846 22.1935 131.171 22.28 131.507 22.28V20.28C131.511 20.28 131.523 20.2807 131.54 20.2852C131.557 20.2899 131.571 20.2965 131.581 20.3025L130.552 22.0175ZM130.507 21.28V22H132.507V21.28H130.507ZM131.507 21H126.467V23H131.507V21ZM127.467 22V21.28H125.467V22H127.467ZM126.467 22.28C126.799 22.28 127.154 22.1942 127.467 21.96L126.267 20.36C126.312 20.3263 126.358 20.3045 126.399 20.2922C126.439 20.2804 126.464 20.28 126.467 20.28V22.28ZM127.491 21.9409C127.92 21.598 128.067 21.114 128.067 20.68H126.067C126.067 20.6842 126.066 20.6419 126.094 20.5754C126.124 20.5028 126.175 20.4324 126.242 20.3791L127.491 21.9409ZM128.067 20.68V14.64H126.067V20.68H128.067ZM127.067 13.64H116.347V15.64H127.067V13.64ZM115.347 14.64V20.68H117.347V14.64H115.347ZM149.026 14.64V15.64H150.619L149.927 14.2057L149.026 14.64ZM145.786 7.92L146.687 7.4857L145.726 5.49306L144.865 7.53072L145.786 7.92ZM142.946 14.64L142.025 14.2507L141.438 15.64H142.946V14.64ZM135.666 21.28L135.502 20.2936L134.666 20.4329V21.28H135.666ZM136.426 20.84L135.645 20.2152L135.637 20.2261L136.426 20.84ZM136.906 20.12L137.801 20.5672L137.808 20.5521L137.815 20.5368L136.906 20.12ZM142.866 7.12L143.775 7.53675L143.781 7.5254L143.786 7.51392L142.866 7.12ZM143.226 6.24L142.313 5.83386L142.301 5.86103L142.29 5.88888L143.226 6.24ZM143.266 5.28L142.559 5.98711L142.726 6.15403L142.95 6.22868L143.266 5.28ZM143.066 5.12H142.066V5.65518L142.512 5.95205L143.066 5.12ZM143.066 4.4V3.4H142.066V4.4H143.066ZM149.106 4.4H150.106V3.4H149.106V4.4ZM149.106 5.12L149.661 5.95205L150.106 5.65518V5.12H149.106ZM148.826 5.24L148.584 4.26986L148.547 4.27917L148.51 4.29132L148.826 5.24ZM148.866 6.16L147.953 6.56614L147.981 6.63038L148.018 6.69L148.866 6.16ZM149.266 6.92L148.356 7.3338L148.36 7.342L148.364 7.35014L149.266 6.92ZM155.746 20.52L154.844 20.9501L154.857 20.9783L154.872 21.0056L155.746 20.52ZM156.186 21.04L155.632 21.872L155.632 21.8721L156.186 21.04ZM156.706 21.28H157.706V20.5257L156.981 20.3185L156.706 21.28ZM156.706 22V23H157.706V22H156.706ZM151.026 22H150.026V23H151.026V22ZM151.026 21.4V20.4H150.026V21.4H151.026ZM151.426 21.28L150.979 20.3856L150.945 20.4027L150.912 20.4225L151.426 21.28ZM151.586 20.4L152.515 20.0286L151.586 20.4ZM151.386 19.88L152.323 19.5289L152.308 19.4897L152.29 19.4519L151.386 19.88ZM150.306 17.6L151.21 17.1719L150.939 16.6H150.306V17.6ZM141.746 17.6V16.6H141.138L140.859 17.1397L141.746 17.6ZM140.626 19.76L139.739 19.2997L139.735 19.3062L139.732 19.3128L140.626 19.76ZM140.346 20.36L139.427 19.9661L139.411 20.0043L139.398 20.0438L140.346 20.36ZM141.026 21.28H142.026V20.28H141.026V21.28ZM141.026 22V23H142.026V22H141.026ZM135.666 22H134.666V23H135.666V22ZM149.927 14.2057L146.687 7.4857L144.886 8.3543L148.126 15.0743L149.927 14.2057ZM144.865 7.53072L142.025 14.2507L143.868 15.0293L146.708 8.30928L144.865 7.53072ZM142.946 15.64H149.026V13.64H142.946V15.64ZM135.831 22.2664C136.38 22.1748 136.864 21.9062 137.216 21.4539L135.637 20.2261C135.615 20.2538 135.592 20.2785 135.502 20.2936L135.831 22.2664ZM137.207 21.4647C137.447 21.1645 137.652 20.8641 137.801 20.5672L136.012 19.6728C135.947 19.8026 135.832 19.9822 135.646 20.2153L137.207 21.4647ZM137.815 20.5368L143.775 7.53675L141.957 6.70325L135.997 19.7032L137.815 20.5368ZM143.786 7.51392C143.948 7.13552 144.075 6.82581 144.163 6.59112L142.29 5.88888C142.218 6.08085 142.105 6.35781 141.947 6.72608L143.786 7.51392ZM144.14 6.64614C144.291 6.30707 144.386 5.94165 144.386 5.56H142.386C142.386 5.60501 142.375 5.69293 142.313 5.83386L144.14 6.64614ZM144.386 5.56C144.386 5.41392 144.371 5.19815 144.276 4.97608C144.168 4.72529 143.949 4.45329 143.583 4.33132L142.95 6.22868C142.664 6.13337 142.505 5.92138 142.437 5.76392C142.407 5.69422 142.396 5.6383 142.391 5.60846C142.386 5.57775 142.386 5.56003 142.386 5.56H144.386ZM143.974 4.57289C143.863 4.46235 143.742 4.36839 143.621 4.28795L142.512 5.95205C142.531 5.96464 142.544 5.97435 142.552 5.98087C142.56 5.98743 142.562 5.98966 142.559 5.98711L143.974 4.57289ZM144.066 5.12V4.4H142.066V5.12H144.066ZM143.066 5.4H149.106V3.4H143.066V5.4ZM148.106 4.4V5.12H150.106V4.4H148.106ZM148.552 4.28795C148.58 4.26929 148.595 4.26706 148.584 4.26986L149.069 6.21014C149.271 6.15961 149.473 6.07738 149.661 5.95205L148.552 4.28795ZM148.51 4.29132C148.092 4.43079 147.886 4.75858 147.8 4.98888C147.72 5.20339 147.706 5.41335 147.706 5.56H149.706C149.706 5.51998 149.713 5.58328 149.673 5.69112C149.626 5.81475 149.481 6.07588 149.143 6.18868L148.51 4.29132ZM147.706 5.56C147.706 5.92156 147.821 6.27016 147.953 6.56614L149.78 5.75386C149.743 5.66978 149.723 5.61017 149.713 5.57234C149.702 5.5332 149.706 5.53189 149.706 5.56H147.706ZM148.018 6.69C148.123 6.85736 148.236 7.07002 148.356 7.3338L150.177 6.5062C150.03 6.18331 149.876 5.8893 149.714 5.63L148.018 6.69ZM148.364 7.35014L154.844 20.9501L156.649 20.0899L150.169 6.48986L148.364 7.35014ZM154.872 21.0056C155.052 21.3292 155.295 21.6474 155.632 21.872L156.741 20.208C156.752 20.215 156.743 20.2118 156.72 20.1841C156.696 20.1561 156.662 20.1088 156.621 20.0344L154.872 21.0056ZM155.632 21.8721C155.879 22.0367 156.147 22.16 156.432 22.2415L156.981 20.3185C156.893 20.2933 156.814 20.2567 156.741 20.2079L155.632 21.8721ZM155.706 21.28V22H157.706V21.28H155.706ZM156.706 21H151.026V23H156.706V21ZM152.026 22V21.4H150.026V22H152.026ZM151.026 22.4C151.369 22.4 151.678 22.295 151.941 22.1375L150.912 20.4225C150.908 20.4247 150.917 20.4186 150.939 20.4122C150.961 20.4054 150.992 20.4 151.026 20.4V22.4ZM151.874 22.1744C152.123 22.0499 152.339 21.8543 152.484 21.5889C152.624 21.3335 152.666 21.0687 152.666 20.84H150.666C150.666 20.8246 150.669 20.7399 150.729 20.6311C150.793 20.5123 150.89 20.4301 150.979 20.3856L151.874 22.1744ZM152.666 20.84C152.666 20.5673 152.621 20.2928 152.515 20.0286L150.658 20.7714C150.659 20.7738 150.666 20.7927 150.666 20.84H152.666ZM152.515 20.0286C152.465 19.9047 152.401 19.7389 152.323 19.5289L150.45 20.2311C150.531 20.4478 150.601 20.6286 150.658 20.7714L152.515 20.0286ZM152.29 19.4519L151.21 17.1719L149.403 18.0281L150.483 20.3081L152.29 19.4519ZM150.306 16.6H141.746V18.6H150.306V16.6ZM140.859 17.1397L139.739 19.2997L141.514 20.2203L142.634 18.0603L140.859 17.1397ZM139.732 19.3128C139.618 19.5407 139.516 19.7586 139.427 19.9661L141.266 20.7539C141.337 20.588 141.421 20.406 141.521 20.2072L139.732 19.3128ZM139.398 20.0438C139.319 20.28 139.266 20.5351 139.266 20.8H141.266C141.266 20.7983 141.267 20.76 141.295 20.6762L139.398 20.0438ZM139.266 20.8C139.266 21.1906 139.405 21.8525 140.095 22.1285L140.838 20.2715C141.008 20.3395 141.139 20.4695 141.211 20.6128C141.27 20.7317 141.266 20.8138 141.266 20.8H139.266ZM140.095 22.1285C140.4 22.2504 140.733 22.28 141.026 22.28V20.28C140.942 20.28 140.884 20.2752 140.848 20.2701C140.81 20.2647 140.812 20.2611 140.838 20.2715L140.095 22.1285ZM140.026 21.28V22H142.026V21.28H140.026ZM141.026 21H135.666V23H141.026V21ZM136.666 22V21.28H134.666V22H136.666ZM166.133 4.4H167.133V3.4H166.133V4.4ZM166.133 5.12V6.12H167.133V5.12H166.133ZM165.213 19.04H164.213V20.04H165.213V19.04ZM176.813 18.84L177.343 19.688L177.379 19.6655L177.413 19.64L176.813 18.84ZM177.133 18.2V17.2H176.133V18.2H177.133ZM177.853 18.2H178.853V17.2H177.853V18.2ZM177.853 22.4V23.4H178.853V22.4H177.853ZM177.133 22.4H176.133V23.4H177.133V22.4ZM176.813 22.04L176.937 21.0477L176.813 22.04ZM160.333 22H159.333V23H160.333V22ZM160.333 21.28V20.28H159.333V21.28H160.333ZM160.333 5.12H159.333V6.12H160.333V5.12ZM160.333 4.4V3.4H159.333V4.4H160.333ZM165.133 4.4V5.12H167.133V4.4H165.133ZM166.133 4.12C165.75 4.12 165.289 4.17673 164.897 4.43239C164.431 4.73639 164.213 5.21918 164.213 5.72H166.213C166.213 5.74877 166.207 5.82263 166.161 5.91261C166.113 6.00625 166.046 6.07082 165.989 6.10761C165.94 6.14001 165.914 6.14088 165.943 6.13468C165.971 6.12861 166.031 6.12 166.133 6.12V4.12ZM164.213 5.72V19.04H166.213V5.72H164.213ZM165.213 20.04H176.013V18.04H165.213V20.04ZM176.013 20.04C176.47 20.04 176.933 19.9444 177.343 19.688L176.283 17.992C176.267 18.0023 176.196 18.04 176.013 18.04V20.04ZM177.413 19.64C177.878 19.2911 178.133 18.7814 178.133 18.2H176.133C176.133 18.2 176.133 18.2 176.133 18.1999C176.133 18.1998 176.133 18.1997 176.133 18.1995C176.133 18.1992 176.133 18.1988 176.133 18.1982C176.133 18.1969 176.133 18.1952 176.133 18.1928C176.134 18.1881 176.135 18.1814 176.137 18.1731C176.141 18.1557 176.148 18.1348 176.159 18.1128C176.182 18.0649 176.21 18.042 176.213 18.04L177.413 19.64ZM177.133 19.2H177.853V17.2H177.133V19.2ZM176.853 18.2V22.4H178.853V18.2H176.853ZM177.853 21.4H177.133V23.4H177.853V21.4ZM178.133 22.4C178.133 22.1303 178.064 21.7818 177.8 21.4856C177.538 21.1906 177.202 21.0808 176.937 21.0477L176.689 23.0323C176.637 23.0258 176.461 22.9894 176.306 22.8144C176.149 22.6382 176.133 22.4564 176.133 22.4H178.133ZM176.937 21.0477C176.668 21.0141 176.357 21 176.013 21V23C176.309 23 176.531 23.0126 176.689 23.0323L176.937 21.0477ZM176.013 21H160.333V23H176.013V21ZM161.333 22V21.28H159.333V22H161.333ZM160.333 22.28C160.743 22.28 161.213 22.2266 161.613 21.9962C162.095 21.7177 162.373 21.2376 162.373 20.68H160.373C160.373 20.6318 160.385 20.5415 160.442 20.4422C160.499 20.343 160.572 20.2878 160.613 20.2638C160.649 20.2435 160.653 20.2501 160.599 20.2605C160.547 20.2705 160.461 20.28 160.333 20.28V22.28ZM162.373 20.68V5.72H160.373V20.68H162.373ZM162.373 5.72C162.373 5.16237 162.095 4.68228 161.613 4.40381C161.213 4.17338 160.743 4.12 160.333 4.12V6.12C160.461 6.12 160.547 6.12949 160.599 6.13951C160.653 6.14986 160.649 6.15653 160.613 6.13618C160.572 6.11225 160.499 6.05699 160.442 5.95778C160.385 5.85854 160.373 5.76816 160.373 5.72H162.373ZM161.333 5.12V4.4H159.333V5.12H161.333ZM160.333 5.4H166.133V3.4H160.333V5.4ZM192.68 7.36L193.467 7.97582L194.73 6.36H192.68V7.36ZM182.76 7.6L182.052 6.89289V6.89289L182.76 7.6ZM182.52 8.16V9.16H183.52V8.16H182.52ZM181.8 8.16H180.8V9.16H181.8V8.16ZM181.8 3.48V2.48H180.8V3.48H181.8ZM182.52 3.48H183.52V2.48H182.52V3.48ZM199.44 4.4H200.44V3.4H199.44V4.4ZM199.44 5.12L200.22 5.74551L200.44 5.47137V5.12H199.44ZM188.28 19.04L187.499 18.4145L186.196 20.04H188.28V19.04ZM198.76 18.2V17.2H197.76V18.2H198.76ZM199.48 18.2H200.48V17.2H199.48V18.2ZM199.48 22.4V23.4H200.48V22.4H199.48ZM198.76 22.4H197.76V23.4H198.76V22.4ZM181.8 22H180.8V23H181.8V22ZM181.8 21.28L181.012 20.6642L180.8 20.9356V21.28H181.8ZM192.68 6.36H183.52V8.36H192.68V6.36ZM183.52 6.36C183.046 6.36 182.479 6.46615 182.052 6.89289L183.467 8.30711C183.442 8.33166 183.418 8.34876 183.399 8.35979C183.381 8.37051 183.37 8.37388 183.371 8.37358C183.372 8.3732 183.384 8.36962 183.409 8.36623C183.435 8.36284 183.471 8.36 183.52 8.36V6.36ZM182.052 6.89289C181.718 7.2278 181.52 7.66411 181.52 8.16H183.52C183.52 8.1818 183.515 8.21654 183.499 8.25392C183.483 8.29015 183.466 8.3074 183.467 8.30711L182.052 6.89289ZM182.52 7.16H181.8V9.16H182.52V7.16ZM182.8 8.16V3.48H180.8V8.16H182.8ZM181.8 4.48H182.52V2.48H181.8V4.48ZM181.52 3.48C181.52 3.96323 181.655 4.50319 182.092 4.90593C182.514 5.29417 183.052 5.4 183.52 5.4V3.4C183.426 3.4 183.383 3.38892 183.375 3.38645C183.372 3.38554 183.379 3.38746 183.393 3.39515C183.408 3.40305 183.427 3.41564 183.447 3.43407C183.467 3.45262 183.484 3.47335 183.498 3.49436C183.511 3.51508 183.519 3.53205 183.522 3.54185C183.529 3.55979 183.52 3.54541 183.52 3.48H181.52ZM183.52 5.4H199.44V3.4H183.52V5.4ZM198.44 4.4V5.12H200.44V4.4H198.44ZM198.659 4.49448L187.499 18.4145L189.06 19.6655L200.22 5.74551L198.659 4.49448ZM188.28 20.04H197.84V18.04H188.28V20.04ZM197.84 20.04C198.279 20.04 198.795 19.9416 199.204 19.5685C199.63 19.1796 199.76 18.6587 199.76 18.2H197.76C197.76 18.2514 197.752 18.2532 197.763 18.2246C197.775 18.1902 197.804 18.1383 197.855 18.0915C197.905 18.0465 197.946 18.0323 197.951 18.0308C197.952 18.0305 197.92 18.04 197.84 18.04V20.04ZM198.76 19.2H199.48V17.2H198.76V19.2ZM198.48 18.2V22.4H200.48V18.2H198.48ZM199.48 21.4H198.76V23.4H199.48V21.4ZM199.76 22.4C199.76 22.127 199.676 21.8517 199.496 21.6166C199.326 21.3949 199.111 21.2626 198.928 21.1829C198.584 21.0333 198.188 21 197.84 21V23C197.959 23 198.043 23.0066 198.099 23.0147C198.157 23.0231 198.16 23.0299 198.131 23.0171C198.101 23.0041 198.002 22.9551 197.908 22.8334C197.805 22.6983 197.76 22.5396 197.76 22.4H199.76ZM197.84 21H181.8V23H197.84V21ZM182.8 22V21.28H180.8V22H182.8ZM182.587 21.8958L193.467 7.97582L191.892 6.74418L181.012 20.6642L182.587 21.8958Z" fill="white"/>
</svg>
